<svg width="238" height="63" viewBox="0 0 238 63" fill="none" xmlns="http://www.w3.org/2000/svg">
<path d="M37.9954 5.90217C37.9954 4.81704 38.8847 3.9306 39.9733 3.9306C41.0773 3.9306 41.9666 4.81704 41.9666 5.90217C41.9666 6.84974 41.292 7.64448 40.418 7.82788C40.2749 7.86864 40.1267 7.88902 39.9733 7.88902C39.8302 7.88902 39.6871 7.86864 39.544 7.82788C38.6547 7.64448 37.9954 6.84974 37.9954 5.90217ZM3.97127 21.5066C3.97127 22.4542 3.31194 23.2336 2.43796 23.4323C2.29485 23.4629 2.14663 23.4781 1.9933 23.4781C1.83997 23.4781 1.69175 23.4629 1.54864 23.4323C0.674655 23.2336 0 22.4542 0 21.5066C0 20.4215 0.889319 19.535 1.9933 19.535C3.08195 19.535 3.97127 20.4215 3.97127 21.5066ZM23.4903 13.712C23.4903 12.6269 24.3643 11.7557 25.4529 11.7557H29.1175C30.2062 11.7557 31.0801 12.6269 31.0801 13.712C31.0801 14.7971 30.2062 15.6836 29.1175 15.6836H25.4529C24.3643 15.6836 23.4903 14.7971 23.4903 13.712Z" fill="#E30427"/>
<path fill-rule="evenodd" clip-rule="evenodd" d="M77.1096 22.3777L63.0032 30.9365C62.2365 31.4102 61.8225 32.2967 61.9758 33.1831L65.8551 55.9402C66.0698 57.224 64.6591 58.1563 63.5551 57.4532L43.1008 44.34C42.4568 43.9274 41.6135 43.9274 40.9542 44.3248L11.0394 62.4815C10.6407 62.726 10.1654 62.8177 9.64405 62.726C8.89272 62.5732 8.2794 61.9771 8.11074 61.2283C7.86541 60.0667 8.67806 59.0274 9.76671 58.8746C9.82804 58.8746 9.88937 58.8695 9.95071 58.8593L9.96604 58.8288V58.8593C9.98648 58.8593 10.0069 58.8593 10.0274 58.8593C10.1194 58.8593 10.196 58.8746 10.288 58.8746H10.978C12.036 58.8746 13.002 58.0952 13.0633 57.0406C13.1093 56.4445 12.864 55.8943 12.4807 55.5122C12.1433 55.176 11.6833 54.9773 11.1927 54.9468C11.1825 54.957 11.1671 54.962 11.1467 54.962H8.72406C7.62008 54.962 6.74609 54.0756 6.74609 52.9752C6.74609 51.8901 7.62008 51.0036 8.72406 51.0036H11.1467C11.1774 51.0036 11.1927 51.0036 11.2234 51.0036H16.5439C16.5542 51.0036 16.5644 51.0087 16.5746 51.0189H17.8932C18.9512 51.0189 19.9019 50.2242 19.9632 49.1543C20.0399 48.0386 19.1506 47.1063 18.0312 47.0758H16.2373C16.2168 47.0758 16.2015 47.0758 16.1913 47.0758C14.6733 47.0452 13.5693 45.3182 14.75 43.7134C15.0873 43.2549 15.6393 43.1479 16.1913 43.1479C16.2015 43.1479 16.2168 43.1428 16.2373 43.1326H28.5651C29.6384 43.1174 30.497 42.2462 30.497 41.1764C30.497 40.2135 29.7764 39.3118 28.9024 39.2507C28.8922 39.2507 28.8768 39.2456 28.8564 39.2354H24.0725C23.9498 39.2354 23.8425 39.2201 23.7351 39.2048C22.4318 38.9756 21.5578 37.4931 22.4778 36.0411C22.7998 35.5215 23.4131 35.3228 24.0265 35.3075C24.0469 35.3075 24.0622 35.3075 24.0725 35.3075H26.4031C26.4338 35.3075 26.4644 35.2922 26.4951 35.2922C26.8018 35.277 27.0931 35.1853 27.3384 35.0324C27.9364 34.6962 28.3351 34.0696 28.3351 33.336C28.3351 33.1933 28.3197 33.0507 28.2891 32.908C28.0897 32.0216 27.3078 31.3644 26.3571 31.3644H26.3111C26.3009 31.3644 26.2907 31.3644 26.2804 31.3644H16.7739C15.6699 31.3644 14.796 30.4932 14.796 29.4081C14.796 28.3383 15.6393 27.4824 16.6973 27.4365H16.7279C16.7381 27.4365 16.7535 27.4365 16.7739 27.4365H18.0772C19.1506 27.406 20.0092 26.5501 20.0092 25.465C20.0092 24.3951 19.1506 23.524 18.0772 23.5087H9.76671C9.75649 23.5087 9.74627 23.5036 9.73604 23.4934C9.19939 23.4934 8.66273 23.417 8.34073 23.0043C7.42075 21.8122 7.75808 20.5896 8.58606 19.9629C8.78539 19.7948 9.03072 19.6573 9.33738 19.6114C9.48049 19.5808 9.6236 19.5656 9.76671 19.5656H20.4999C20.5919 19.5656 20.6839 19.5808 20.7912 19.5961H44.1588C45.2321 19.5656 46.0908 18.7097 46.0908 17.6398C46.0908 16.57 45.2168 15.6989 44.1588 15.6836H36.0783C36.068 15.6836 36.0578 15.6785 36.0476 15.6683C34.9743 15.653 34.1156 15.0569 34.1156 13.9871V13.712C34.1156 12.6269 35.005 11.7557 36.0783 11.7557H46.7654C46.7859 11.7557 46.8012 11.7557 46.8114 11.7557H49.418C50.5067 11.7557 51.396 10.8846 51.396 9.79944C51.396 8.7296 50.5374 7.85844 49.464 7.84315H47.8847C47.8745 7.84315 47.8643 7.83806 47.8541 7.82787C46.7501 7.81259 45.8608 6.8803 45.9221 5.76461C45.9834 4.71005 46.9341 3.91531 48.0074 3.91531H49.9394C50.8287 3.91531 51.6567 3.50265 52.1933 2.79961L53.8493 0.598797C54.6466 -0.455762 56.3179 -0.0431083 56.5326 1.25599L59.4305 18.1901C59.5685 19.0001 60.2585 19.5961 61.0865 19.5961H76.3276C77.8456 19.5961 78.4129 21.583 77.1096 22.3777ZM29.6844 23.4934H26.0198C24.9311 23.4934 24.0571 24.3799 24.0571 25.465C24.0571 26.5501 24.9311 27.4213 26.0198 27.4213H29.6844C30.7577 27.4213 31.647 26.5501 31.647 25.465C31.647 24.3799 30.7577 23.4934 29.6844 23.4934ZM12.5113 39.2354C11.4227 39.2354 10.5334 38.3642 10.5334 37.2791C10.5334 36.194 11.4227 35.3075 12.5113 35.3075H16.1606C17.2493 35.3075 18.1386 36.194 18.1386 37.2791C18.1386 38.3642 17.2493 39.2354 16.1606 39.2354H12.5113Z" fill="#E30427"/>
<path d="M126.038 33.5652C126.192 33.5347 126.335 33.4888 126.468 33.4277L125.379 38.5324C125.241 39.1437 124.704 39.5869 124.076 39.5869C123.232 39.5869 122.604 38.8075 122.788 37.9822L124.29 30.9212C124.367 30.5697 124.582 30.2793 124.873 30.0806C124.934 30.0398 125.006 30.0042 125.088 29.9736C125.098 29.9736 125.108 29.9685 125.118 29.9583C125.22 29.9176 125.323 29.8921 125.425 29.8819C125.425 29.8819 125.43 29.8819 125.44 29.8819C125.542 29.8717 125.645 29.8717 125.747 29.8819C125.757 29.8921 125.767 29.8972 125.778 29.8972C125.88 29.9074 125.987 29.9329 126.1 29.9736C126.437 30.1265 126.682 30.3863 126.805 30.7072C126.836 30.7786 126.861 30.855 126.882 30.9365C126.882 30.9569 126.882 30.9772 126.882 30.9976C126.902 31.0587 126.912 31.125 126.912 31.1963C126.912 31.288 126.902 31.3797 126.882 31.4714V31.4867C126.861 31.5682 126.836 31.6446 126.805 31.7159C126.636 32.1286 126.268 32.4343 125.839 32.5107C125.548 32.5718 125.364 32.8469 125.41 33.1373C125.471 33.3971 125.686 33.5652 125.931 33.5652C125.972 33.5652 126.008 33.5652 126.038 33.5652ZM237.126 33.5652C237.269 33.5347 237.413 33.4888 237.556 33.4277L236.467 38.5324C236.329 39.1437 235.792 39.5869 235.164 39.5869C234.32 39.5869 233.692 38.8075 233.86 37.9822L235.378 30.9212C235.455 30.5697 235.67 30.2793 235.946 30.0806C236.017 30.0398 236.089 30.0042 236.16 29.9736C236.171 29.9736 236.181 29.9685 236.191 29.9583C236.293 29.9176 236.401 29.8921 236.513 29.8819C236.625 29.8717 236.733 29.8717 236.835 29.8819C236.845 29.8921 236.85 29.8972 236.85 29.8972C236.963 29.9074 237.07 29.9329 237.172 29.9736C237.51 30.1265 237.77 30.3863 237.893 30.7072C237.924 30.7786 237.949 30.855 237.97 30.9365C237.97 30.9569 237.97 30.9772 237.97 30.9976C237.98 31.0587 237.99 31.125 238 31.1963C238 31.288 237.99 31.3797 237.97 31.4714L237.954 31.4867C237.944 31.5682 237.924 31.6446 237.893 31.7159C237.724 32.1286 237.356 32.4343 236.912 32.5107C236.636 32.5718 236.436 32.8469 236.498 33.1373C236.544 33.3971 236.774 33.5652 237.019 33.5652C237.06 33.5652 237.096 33.5652 237.126 33.5652ZM184.703 46.4033C184.846 46.3728 184.984 46.3269 185.117 46.2658L184.028 51.3857C183.905 51.9818 183.353 52.425 182.74 52.425H182.725C181.881 52.425 181.253 51.6456 181.437 50.8355L182.939 43.7593C183.016 43.4078 183.231 43.1174 183.522 42.934C183.593 42.883 183.665 42.8423 183.737 42.8117C183.747 42.8117 183.757 42.8066 183.767 42.7964C183.869 42.7557 183.977 42.7302 184.089 42.72C184.191 42.7098 184.299 42.7149 184.411 42.7353C184.411 42.7353 184.416 42.7353 184.427 42.7353C184.539 42.7455 184.646 42.7761 184.749 42.827C185.086 42.9646 185.331 43.2244 185.469 43.5453C185.5 43.6268 185.52 43.7033 185.531 43.7746C185.541 43.795 185.546 43.8153 185.546 43.8357C185.556 43.8969 185.561 43.9631 185.561 44.0344C185.561 44.1261 185.551 44.2178 185.531 44.3095V44.3248C185.52 44.4063 185.495 44.4878 185.454 44.5693C185.285 44.9667 184.933 45.2724 184.488 45.3488C184.197 45.4099 184.013 45.685 184.074 45.9754C184.12 46.2352 184.35 46.4033 184.595 46.4033C184.626 46.4033 184.662 46.4033 184.703 46.4033ZM165.889 46.4033C166.032 46.3728 166.17 46.3269 166.303 46.2658L165.214 51.3857C165.092 51.9818 164.555 52.425 163.926 52.425C163.083 52.425 162.454 51.6456 162.623 50.8355L164.126 43.7593C164.202 43.4078 164.417 43.1174 164.708 42.934C164.78 42.883 164.851 42.8423 164.923 42.8117C164.933 42.8117 164.943 42.8066 164.954 42.7964C165.056 42.7557 165.163 42.7302 165.276 42.72C165.378 42.7098 165.485 42.7149 165.598 42.7353C165.598 42.7353 165.603 42.7353 165.613 42.7353C165.725 42.7455 165.833 42.7761 165.935 42.827C166.272 42.9646 166.518 43.2244 166.656 43.5453C166.686 43.6268 166.712 43.7033 166.732 43.7746C166.732 43.795 166.732 43.8153 166.732 43.8357C166.742 43.8969 166.748 43.9631 166.748 44.0344C166.748 44.1261 166.742 44.2178 166.732 44.3095L166.717 44.3248C166.707 44.4063 166.686 44.4878 166.656 44.5693C166.472 44.9667 166.119 45.2724 165.674 45.3488C165.383 45.4099 165.199 45.685 165.26 45.9754C165.306 46.2352 165.536 46.4033 165.782 46.4033C165.812 46.4033 165.848 46.4033 165.889 46.4033ZM90.8028 30.5544C91.1401 30.1417 91.6308 29.8972 92.1674 29.8972C93.2561 29.8972 94.0687 30.9059 93.8387 31.9605L92.4281 38.5476C92.2901 39.159 91.7534 39.6022 91.1248 39.6022H91.0941C90.2508 39.6022 89.6221 38.8227 89.7908 37.9974L90.6035 34.2836L87.2148 38.5782C86.7089 39.2201 85.9422 39.6022 85.1142 39.6022C83.9796 39.6022 82.9676 38.8839 82.5843 37.8293L81.3116 34.2836L80.4223 38.5476C80.2843 39.159 79.7476 39.6022 79.119 39.6022C78.2757 39.6022 77.647 38.8227 77.831 37.9974L79.2723 31.2574C79.441 30.4627 80.131 29.8972 80.9436 29.8972H81.2503C81.9863 29.8972 82.6303 30.3557 82.8756 31.0435L85.2215 37.7223L90.8028 30.5544ZM100.953 37.8446L102.395 30.9365C102.533 30.3099 103.085 29.8666 103.713 29.8666C104.572 29.8666 105.216 30.6461 105.032 31.4867C104.623 33.4226 104.204 35.3636 103.775 37.3097C103.683 37.7223 103.974 38.0586 104.373 38.0586H109.31C109.785 38.0586 110.153 38.4865 110.046 38.9603C109.969 39.3118 109.662 39.5563 109.31 39.5563H102.272C101.352 39.5563 100.754 38.7922 100.953 37.8446ZM111.901 37.8446L113.358 30.9365C113.48 30.3099 114.032 29.8666 114.676 29.8666C115.52 29.8666 116.164 30.6461 115.995 31.4867C115.586 33.4226 115.167 35.3636 114.738 37.3097C114.646 37.7223 114.937 38.0586 115.336 38.0586H120.258C120.748 38.0586 121.101 38.4865 121.009 38.9603C120.932 39.3118 120.626 39.5563 120.258 39.5563H113.22C112.3 39.5563 111.702 38.7922 111.901 37.8446ZM199.576 37.8446L201.032 30.9365C201.155 30.3099 201.707 29.8666 202.351 29.8666C203.21 29.8666 203.838 30.6461 203.67 31.4867C203.261 33.4226 202.842 35.3636 202.412 37.3097C202.32 37.7223 202.612 38.0586 203.01 38.0586H207.947C208.423 38.0586 208.775 38.4865 208.683 38.9603C208.607 39.3118 208.3 39.5563 207.947 39.5563H200.894C199.974 39.5563 199.376 38.7922 199.576 37.8446ZM134.824 37.921L136.219 31.3797H132.923C132.447 31.3797 132.079 30.9365 132.187 30.4627C132.263 30.1112 132.57 29.8666 132.923 29.8666H142.552C143.027 29.8666 143.38 30.3099 143.288 30.7836C143.211 31.1199 142.905 31.3797 142.552 31.3797H138.979L137.477 38.4865C137.354 39.1131 136.802 39.5563 136.143 39.5563C135.284 39.5563 134.64 38.7616 134.824 37.921ZM168.511 31.9299L165.874 34.7115L167.254 37.3708C167.775 38.3642 167.039 39.5563 165.92 39.5563C165.352 39.5563 164.831 39.2507 164.586 38.7463L162.884 35.4604H160.369L159.725 38.5171C159.587 39.1284 159.05 39.5563 158.422 39.5563C157.578 39.5563 156.95 38.7769 157.118 37.9669L158.636 30.9059C158.759 30.2946 159.311 29.8666 159.924 29.8666C160.768 29.8666 161.396 30.6461 161.228 31.4561L160.691 33.9626H163.206L166.702 30.2487C166.947 30.0042 167.269 29.8666 167.606 29.8666C168.695 29.8666 169.247 31.1504 168.511 31.9299ZM100.815 44.7986L97.7027 47.5649L99.5733 50.2242C100.079 51.2176 99.3586 52.4097 98.224 52.4097C97.672 52.4097 97.1507 52.1041 96.89 51.5997L94.9734 48.7111C94.8047 48.4666 94.5441 48.3138 94.2527 48.3138H92.6888L92.0294 51.3705C91.9068 51.9818 91.3548 52.4097 90.7261 52.4097C89.8828 52.4097 89.2541 51.6456 89.4381 50.8203L90.9408 43.7593C91.0788 43.148 91.6154 42.72 92.2441 42.72C93.0874 42.72 93.7161 43.4995 93.5321 44.3095L92.9954 46.816H94.6974C94.912 46.816 95.1267 46.7396 95.28 46.5867L99.0213 43.1021C99.2513 42.8576 99.5733 42.72 99.9106 42.72C100.999 42.72 101.551 44.0038 100.815 44.7986ZM181.897 29.8666C182.755 29.8666 183.399 30.6614 183.215 31.4867L181.866 37.8293C181.636 38.838 180.747 39.5716 179.704 39.5716C178.968 39.5716 178.293 39.2048 177.879 38.6088L174.107 32.4648L172.973 38.4865C172.85 39.1131 172.283 39.5716 171.639 39.5716C170.78 39.5716 170.136 38.7769 170.305 37.921L171.654 31.6395C171.869 30.6002 172.789 29.8666 173.847 29.8666C174.583 29.8666 175.273 30.2334 175.687 30.8448L179.459 36.9887L180.578 30.9365C180.716 30.3099 181.268 29.8666 181.897 29.8666Z" fill="#1D1E1C"/>
<path fill-rule="evenodd" clip-rule="evenodd" d="M198.042 31.5937C197.603 33.6824 197.163 35.7711 196.723 37.8599C196.524 38.7922 195.527 39.5716 194.607 39.5716H186.067C185.116 39.5716 184.472 38.7922 184.718 37.8599C185.162 35.766 185.592 33.6722 186.067 31.5784C186.266 30.6308 187.186 29.8666 188.152 29.8666H196.677C197.597 29.8666 198.241 30.6461 198.042 31.5937ZM194.562 31.3797H189.578C189.149 31.3797 188.75 31.7159 188.658 32.1286C188.275 33.8556 187.907 35.5826 187.554 37.3097C187.462 37.7223 187.708 38.0586 188.152 38.0586H193.136C193.534 38.0586 193.964 37.7223 194.055 37.3097C194.408 35.5826 194.776 33.8556 195.159 32.1286C195.251 31.7159 194.96 31.3797 194.562 31.3797ZM223.848 31.5937C223.408 33.6824 222.969 35.7711 222.529 37.8599C222.33 38.7922 221.333 39.5716 220.413 39.5716H211.888C210.922 39.5716 210.293 38.7922 210.523 37.8599C210.968 35.766 211.413 33.6722 211.888 31.5784C212.087 30.6308 213.007 29.8666 213.958 29.8666H222.498C223.418 29.8666 224.047 30.6461 223.848 31.5937ZM220.382 31.3797H215.399C214.954 31.3797 214.571 31.7159 214.479 32.1286C214.096 33.8556 213.713 35.5826 213.36 37.3097C213.268 37.7223 213.513 38.0586 213.958 38.0586H218.941C219.34 38.0586 219.769 37.7223 219.861 37.3097C220.214 35.5826 220.597 33.8556 220.98 32.1286C221.072 31.7159 220.781 31.3797 220.382 31.3797ZM229.782 30.9212C229.92 30.3099 230.472 29.8666 231.1 29.8666C231.944 29.8666 232.572 30.6461 232.404 31.4714L231.054 37.8599C230.855 38.7922 229.904 39.5716 228.938 39.5716H224.691C224.216 39.5716 223.848 39.1284 223.955 38.6546C224.032 38.3031 224.338 38.0586 224.691 38.0586H227.466C227.911 38.0586 228.34 37.7223 228.432 37.3097C228.862 35.1853 229.322 33.0456 229.782 30.9212ZM129.902 44.4165C129.473 46.5103 128.982 48.5889 128.553 50.6827C128.353 51.6303 127.433 52.3944 126.483 52.3944H117.973C117.313 52.3944 116.838 51.7984 116.961 51.1565L118.601 43.5148C118.709 43.041 119.123 42.7047 119.613 42.7047H128.553C129.503 42.7047 130.101 43.4689 129.902 44.4165ZM127.081 44.9514C127.157 44.5388 126.866 44.2025 126.483 44.2025H121.177L119.736 50.8814H125.041C125.44 50.8814 125.869 50.5452 125.961 50.1325C126.314 48.4208 126.713 46.6937 127.081 44.9514ZM142.981 42.72C143.472 42.72 143.824 43.148 143.732 43.6217C143.656 43.9733 143.349 44.2178 142.981 44.2178H136.296C135.866 44.2178 135.437 44.554 135.345 44.982C135.192 45.5933 135.1 46.2046 134.977 46.8007H141.187C141.678 46.8007 142.03 47.2439 141.923 47.7177C141.862 48.0539 141.555 48.3138 141.187 48.3138H134.67C134.502 48.9251 134.41 49.5517 134.272 50.1478C134.164 50.5604 134.425 50.8967 134.87 50.8967H141.233C141.708 50.8967 142.076 51.3399 141.969 51.8137C141.892 52.1652 141.586 52.4097 141.233 52.4097H132.754C131.834 52.4097 131.159 51.6303 131.359 50.698C131.788 48.6042 132.263 46.5256 132.708 44.4318C132.907 43.4842 133.873 42.72 134.824 42.72H142.981ZM155.063 29.8666C155.539 29.8666 155.891 30.3099 155.799 30.7684C155.723 31.1199 155.416 31.3644 155.063 31.3644H148.378C147.949 31.3644 147.504 31.7159 147.412 32.1286C147.274 32.7399 147.167 33.3513 147.06 33.9473H153.27C153.745 33.9473 154.097 34.3905 154.005 34.8643C153.929 35.2158 153.622 35.4604 153.27 35.4604H146.738C146.584 36.0717 146.477 36.6983 146.339 37.3097C146.247 37.7223 146.492 38.0586 146.937 38.0586H153.3C153.791 38.0586 154.143 38.4865 154.036 38.9603C153.975 39.3118 153.668 39.5563 153.3 39.5563H144.821C143.901 39.5563 143.226 38.7922 143.426 37.8446C143.87 35.7661 144.346 33.6722 144.775 31.5784C144.974 30.6308 145.94 29.8666 146.891 29.8666H155.063ZM158.053 43.3619C158.375 42.9493 158.866 42.7047 159.403 42.7047C160.491 42.7047 161.304 43.7134 161.074 44.768L159.663 51.3552C159.525 51.9665 158.989 52.4097 158.36 52.4097H158.329C157.486 52.4097 156.857 51.6303 157.041 50.805L157.839 47.0911L154.465 51.3857C153.944 52.0276 153.178 52.4097 152.35 52.4097C151.215 52.4097 150.203 51.6914 149.82 50.6369L148.547 47.0911L147.658 51.3552C147.52 51.9665 146.983 52.4097 146.354 52.4097C145.511 52.4097 144.882 51.6303 145.066 50.805L146.508 44.065C146.676 43.2702 147.366 42.7047 148.179 42.7047H148.486C149.222 42.7047 149.866 43.1632 150.111 43.851L152.457 50.5299L158.053 43.3619ZM171.685 42.6895C174.26 42.7047 176.821 42.7047 179.428 42.7047C179.888 42.7047 180.24 43.1327 180.148 43.5912C180.072 43.9274 179.78 44.172 179.428 44.172H173.233C172.727 44.172 172.298 44.554 172.206 45.0278C172.175 45.1501 172.145 45.2571 172.129 45.3793C172.037 45.8226 172.283 46.1894 172.727 46.2352C174.521 46.3881 176.346 46.5562 178.186 46.709C179.029 46.7854 179.504 47.4579 179.382 48.2832C179.182 49.0932 179.029 49.888 178.86 50.698C178.661 51.6456 177.787 52.3944 176.836 52.3944C174.214 52.3944 171.639 52.3944 169.063 52.3944C168.603 52.3944 168.25 51.9665 168.342 51.5233C168.403 51.1718 168.71 50.9272 169.063 50.9272H175.211C175.686 50.9272 176.1 50.6063 176.238 50.1631C176.3 49.9949 176.315 49.8574 176.346 49.7046C176.453 49.2613 176.146 48.8945 175.748 48.864C173.923 48.7111 172.129 48.543 170.335 48.3749C169.492 48.3138 168.971 47.6413 169.047 46.816C169.247 46.006 169.415 45.2112 169.615 44.4012C169.814 43.4536 170.734 42.6895 171.685 42.6895ZM88.0426 44.4318C87.5622 46.7243 87.0817 49.027 86.6013 51.3399C86.4633 51.9512 85.9113 52.4097 85.2826 52.4097C84.424 52.4097 83.78 51.615 83.964 50.7897L84.4853 48.2832H78.4134C78.1988 49.3021 77.979 50.321 77.7541 51.3399C77.6314 51.9665 77.0794 52.4097 76.4508 52.4097C75.5921 52.4097 74.9481 51.615 75.1168 50.7897L76.4661 44.4318C76.6501 43.4842 77.6161 42.7047 78.5668 42.7047H86.6933C87.6439 42.7047 88.2419 43.4842 88.0426 44.4318ZM84.792 46.8007L85.1753 44.9667C85.2673 44.5388 85.022 44.2025 84.6233 44.2025H80.0081C79.6094 44.2025 79.2107 44.554 79.1341 44.9667C79.0114 45.578 78.8734 46.1894 78.7354 46.8007H84.792Z" fill="#1D1E1C"/>
<path fill-rule="evenodd" clip-rule="evenodd" d="M115.642 44.4318C115.162 46.7345 114.681 49.0372 114.201 51.3399C114.063 51.9665 113.511 52.4097 112.882 52.4097C112.023 52.4097 111.379 51.6303 111.563 50.7897L112.085 48.2985H106.028C105.803 49.3174 105.578 50.3363 105.354 51.3552C105.231 51.9665 104.679 52.4097 104.05 52.4097C103.192 52.4097 102.548 51.6303 102.716 50.7897L104.066 44.4318C104.25 43.4842 105.216 42.72 106.166 42.72H114.293C115.243 42.72 115.841 43.4842 115.642 44.4318ZM112.391 46.816L112.775 44.982C112.867 44.554 112.621 44.2178 112.223 44.2178H107.608C107.209 44.2178 106.81 44.554 106.734 44.982C106.611 45.5933 106.473 46.2046 106.335 46.816H112.391ZM98.7143 33.5652C98.8574 33.5347 98.9954 33.4888 99.1283 33.4277L98.0397 38.5323C97.917 39.1437 97.3804 39.5869 96.7517 39.5869C95.9084 39.5869 95.2797 38.8074 95.4484 37.9821L96.951 30.9212C97.0277 30.5697 97.2424 30.2793 97.5337 30.0806C97.6052 30.0398 97.6768 30.0042 97.7484 29.9736C97.7586 29.9736 97.7688 29.9685 97.779 29.9583C97.8812 29.9176 97.9886 29.8921 98.101 29.8819C98.2032 29.8717 98.3106 29.8717 98.423 29.8819C98.4332 29.8921 98.4383 29.8972 98.4383 29.8972C98.5508 29.9074 98.6581 29.9329 98.7603 29.9736C99.0977 30.1264 99.3583 30.3863 99.481 30.7072C99.5117 30.7785 99.5372 30.855 99.5577 30.9365C99.5577 30.9568 99.5577 30.9772 99.5577 30.9976C99.5679 31.0587 99.573 31.125 99.573 31.1963C99.5832 31.288 99.5781 31.3797 99.5577 31.4714L99.5423 31.4867C99.5321 31.5682 99.5117 31.6446 99.481 31.7159C99.297 32.1286 98.9443 32.4342 98.4997 32.5107C98.2083 32.5718 98.0243 32.8469 98.0857 33.1373C98.1317 33.3971 98.3617 33.5652 98.607 33.5652C98.6377 33.5652 98.6734 33.5652 98.7143 33.5652Z" fill="#1D1E1C"/>
</svg>
