<svg width="63" height="63" viewBox="0 0 63 63" fill="none" xmlns="http://www.w3.org/2000/svg">
<path d="M53.4586 53.3667H52.3322C52.1161 53.3667 52.0179 53.0785 52.1881 52.9279L52.509 52.6528C52.7906 52.4105 53.1312 52.2795 53.4848 52.2795H54.6112C54.8273 52.2795 54.9256 52.5742 54.7553 52.7183L54.4344 52.9999C54.1593 53.2357 53.8122 53.3667 53.4586 53.3667Z" fill="#DE2030"/>
<path d="M54.9316 51.7884L53.8052 51.8604C53.5956 51.88 53.4777 51.5919 53.6349 51.4347L53.9361 51.1335C54.1981 50.8781 54.5321 50.7274 54.8857 50.7012L56.0056 50.6227C56.2217 50.603 56.3396 50.8912 56.1824 51.0483L55.8812 51.3496C55.6192 51.605 55.2852 51.7622 54.9316 51.7884Z" fill="#DE2030"/>
<path d="M56.2944 50.1053L55.1745 50.2625C54.965 50.2886 54.8275 50.0136 54.9715 49.8433L55.2531 49.5224C55.4954 49.2474 55.8163 49.0706 56.17 49.0247L57.2833 48.8675C57.4994 48.8348 57.6369 49.1099 57.4863 49.2801L57.2047 49.601C56.9689 49.8761 56.648 50.0529 56.2944 50.1053Z" fill="#DE2030"/>
<path d="M57.5313 48.3306L56.4311 48.5663C56.215 48.6122 56.0644 48.3437 56.1953 48.1668L56.4573 47.8263C56.6734 47.5382 56.9878 47.3351 57.3283 47.2631L58.435 47.0273C58.6446 46.9815 58.8018 47.25 58.6643 47.4268L58.4089 47.7674C58.1862 48.0555 57.8784 48.2585 57.5313 48.3306Z" fill="#DE2030"/>
<path d="M58.6447 46.4772L57.5575 46.785C57.3545 46.844 57.1777 46.5886 57.3021 46.4052L57.5379 46.045C57.7344 45.7438 58.0291 45.5211 58.3696 45.4229L59.4502 45.1151C59.6597 45.0561 59.8365 45.305 59.7121 45.4949L59.4764 45.8551C59.2799 46.1563 58.9852 46.379 58.6447 46.4772Z" fill="#DE2030"/>
<path d="M59.6203 44.5453L58.566 44.9317C58.3629 45.0103 58.173 44.768 58.2778 44.5715L58.4874 44.1982C58.6642 43.8774 58.9458 43.6416 59.2798 43.5172L60.3342 43.1308C60.5437 43.0587 60.7336 43.3011 60.6223 43.4975L60.4127 43.8708C60.2359 44.1852 59.9543 44.4275 59.6203 44.5453Z" fill="#DE2030"/>
<path d="M60.4661 42.5545L59.4379 43.0129C59.2414 43.1046 59.0384 42.8754 59.1301 42.6723L59.3135 42.286C59.4641 41.952 59.7261 41.6966 60.0535 41.5525L61.0817 41.0941C61.2781 41.0089 61.4877 41.2382 61.3895 41.4346L61.2061 41.821C61.0489 42.155 60.7935 42.4104 60.4661 42.5545Z" fill="#DE2030"/>
<path d="M61.1733 40.5112L60.1713 41.0417C59.9814 41.1399 59.7587 40.9238 59.8439 40.7208L59.9945 40.3213C60.132 39.9808 60.3678 39.7057 60.6821 39.5354L61.6776 39.0115C61.8675 38.9067 62.0901 39.1229 62.0116 39.3259L61.8609 39.7254C61.7234 40.0659 61.4811 40.3475 61.1733 40.5112Z" fill="#DE2030"/>
<path d="M61.7292 38.4222L60.773 39.0181C60.5897 39.1294 60.3539 38.933 60.4194 38.7234L60.5438 38.3174C60.6551 37.9637 60.8713 37.6756 61.1725 37.4857L62.1286 36.8897C62.312 36.7718 62.5478 36.9683 62.4823 37.1844L62.3578 37.5904C62.2531 37.9441 62.0304 38.2322 61.7292 38.4222Z" fill="#DE2030"/>
<path d="M62.1354 36.2938L61.2251 36.9617C61.0483 37.0862 60.7994 36.9093 60.8518 36.6932L60.9501 36.2741C61.0352 35.9205 61.2382 35.6127 61.5198 35.4031L62.4367 34.7417C62.6069 34.6107 62.8558 34.7941 62.8099 35.0102L62.7117 35.4293C62.6266 35.7829 62.4236 36.0907 62.1354 36.2938Z" fill="#DE2030"/>
<path d="M62.3974 34.1523L61.5395 34.8727C61.3692 35.0167 61.1072 34.853 61.1465 34.6303L61.212 34.2112C61.271 33.851 61.4478 33.5301 61.7228 33.3009L62.5873 32.574C62.751 32.4365 63.013 32.6002 62.9737 32.8163L62.9082 33.242C62.8492 33.6022 62.6724 33.9231 62.3974 34.1523Z" fill="#DE2030"/>
<path d="M62.5091 31.9912L61.7036 32.7705C61.5464 32.9211 61.2714 32.7836 61.291 32.5609L61.3303 32.1352C61.3631 31.7685 61.5202 31.4345 61.7757 31.1922L62.5877 30.4063C62.7449 30.2557 63.0134 30.3998 62.9937 30.6224L62.9544 31.0481C62.9217 31.4083 62.7645 31.7423 62.5091 31.9912Z" fill="#DE2030"/>
<path d="M62.4692 29.8301L61.7161 30.6618C61.572 30.8255 61.2904 30.7011 61.297 30.4784L61.3035 30.0527C61.3101 29.686 61.4411 29.3454 61.6834 29.0769L62.4365 28.2452C62.5806 28.0815 62.8622 28.2059 62.8556 28.4286L62.8491 28.8543C62.8425 29.221 62.705 29.5616 62.4692 29.8301Z" fill="#DE2030"/>
<path d="M62.2801 27.6755L61.5859 28.5596C61.455 28.7364 61.1668 28.6316 61.1537 28.4089L61.1341 27.9767C61.1144 27.6165 61.2257 27.2629 61.4419 26.9813L62.136 26.0972C62.267 25.9269 62.5552 26.0317 62.5683 26.2478L62.5879 26.68C62.6076 27.0468 62.4962 27.3939 62.2801 27.6755Z" fill="#DE2030"/>
<path d="M61.9389 25.5405L61.3102 26.4705C61.1858 26.6538 60.8911 26.5687 60.8649 26.346L60.8125 25.9204C60.7732 25.5602 60.8518 25.2 61.0548 24.9053L61.6835 23.9753C61.808 23.792 62.1027 23.8771 62.1289 24.0998L62.1812 24.5255C62.2205 24.8856 62.1354 25.2458 61.9389 25.5405Z" fill="#DE2030"/>
<path d="M61.4478 23.4318L60.8846 24.4076C60.7798 24.591 60.4785 24.532 60.4327 24.3094L60.3541 23.8903C60.2886 23.5366 60.3475 23.1699 60.5244 22.8621L61.0876 21.8863C61.1924 21.7029 61.4936 21.7619 61.5394 21.9845L61.618 22.4037C61.6835 22.7573 61.6246 23.124 61.4478 23.4318Z" fill="#DE2030"/>
<path d="M60.8196 21.3624L60.3219 22.3774C60.2302 22.5674 59.9225 22.5281 59.8701 22.3119L59.7587 21.8994C59.6605 21.5457 59.6932 21.179 59.8504 20.8646L60.3481 19.8496C60.4398 19.6597 60.7476 19.699 60.8 19.9151L60.9113 20.3276C61.003 20.6813 60.9703 21.048 60.8196 21.3624Z" fill="#DE2030"/>
<path d="M60.0399 19.3453L59.6143 20.3931C59.5357 20.5896 59.2279 20.57 59.1559 20.3604L59.0183 19.9544C58.9004 19.6073 58.907 19.2405 59.038 18.9131L59.4636 17.8653C59.5422 17.6688 59.85 17.6885 59.9221 17.898L60.0596 18.3041C60.1775 18.6511 60.1709 19.0179 60.0399 19.3453Z" fill="#DE2030"/>
<path d="M59.1233 17.3872L58.7696 18.4547C58.7107 18.6642 58.4029 18.6642 58.3112 18.4612L58.1475 18.0617C58.0034 17.7277 57.9903 17.361 58.0951 17.027L58.4422 15.953C58.5142 15.75 58.822 15.7434 58.9072 15.953L59.0709 16.3459C59.215 16.6799 59.2346 17.0467 59.1233 17.3872Z" fill="#DE2030"/>
<path d="M58.0683 15.4946L57.7998 16.5883C57.7474 16.7978 57.4396 16.824 57.3414 16.621L57.1449 16.2412C56.9812 15.9137 56.9353 15.5536 57.0205 15.2065L57.2955 14.1128C57.3479 13.9032 57.6557 13.8836 57.754 14.0801L57.9504 14.4599C58.1141 14.7873 58.1534 15.1541 58.0683 15.4946Z" fill="#DE2030"/>
<path d="M56.8903 13.6805L56.6939 14.7938C56.6611 15.0034 56.3533 15.0493 56.242 14.8593L56.0193 14.4926C55.836 14.1783 55.7639 13.8181 55.8294 13.471L56.0193 12.3577C56.0586 12.1481 56.3599 12.1023 56.4778 12.2922L56.6939 12.6589C56.8838 12.9733 56.9558 13.3335 56.8903 13.6805Z" fill="#DE2030"/>
<path d="M55.587 11.9582L55.4692 13.0781C55.4495 13.2942 55.1483 13.3597 55.0173 13.1763L54.775 12.8227C54.5654 12.528 54.4737 12.1678 54.5065 11.8207L54.6244 10.7008C54.6506 10.4782 54.9518 10.4192 55.0762 10.6026L55.3251 10.9497C55.5346 11.251 55.6263 11.6046 55.587 11.9582Z" fill="#DE2030"/>
<path d="M54.1655 10.3275L54.1262 11.4539C54.1197 11.6701 53.825 11.7552 53.6809 11.5784L53.4189 11.2444C53.1832 10.9628 53.0718 10.6157 53.0784 10.262L53.1177 9.13564C53.1308 8.91953 53.4255 8.8344 53.563 9.01122L53.8315 9.33866C54.0607 9.62681 54.1786 9.9739 54.1655 10.3275Z" fill="#DE2030"/>
<path d="M52.6333 8.79512L52.6726 9.92807C52.6792 10.1442 52.391 10.249 52.2404 10.0852L51.9523 9.7709C51.7034 9.50239 51.5593 9.16185 51.5462 8.80821L51.5069 7.68181C51.5004 7.4657 51.7885 7.36092 51.9392 7.52464L52.2339 7.83898C52.4762 8.10749 52.6203 8.44803 52.6333 8.79512Z" fill="#DE2030"/>
<path d="M51.0028 7.38057L51.1207 8.50043C51.1404 8.71654 50.8588 8.84751 50.7016 8.69034L50.3872 8.39564C50.1187 8.14679 49.955 7.81934 49.9157 7.46571L49.7979 6.34585C49.7782 6.13629 50.0598 6.01186 50.217 6.15593L50.5313 6.45063C50.7998 6.69949 50.9635 7.02693 51.0028 7.38057Z" fill="#DE2030"/>
<path d="M49.2734 6.08387L49.4633 7.19063C49.5026 7.40674 49.2341 7.55081 49.0573 7.40674L48.7298 7.13823C48.4482 6.90902 48.2583 6.59468 48.1928 6.24759L48.0029 5.13428C47.9636 4.92472 48.2321 4.7741 48.4089 4.91817L48.7364 5.18668C49.0245 5.41589 49.2079 5.73023 49.2734 6.08387Z" fill="#DE2030"/>
<path d="M47.4526 4.90507L47.7276 5.99873C47.78 6.20829 47.5181 6.37201 47.3347 6.24759L46.9876 5.99873C46.6929 5.78917 46.4768 5.48792 46.3917 5.14083L46.1232 4.04717C46.0708 3.83761 46.3262 3.67389 46.5095 3.80486L46.8632 4.04717C47.1579 4.26328 47.3674 4.56453 47.4526 4.90507Z" fill="#DE2030"/>
<path d="M45.5602 3.8573L45.9073 4.93131C45.9793 5.13432 45.7305 5.31769 45.5405 5.19981L45.1738 4.9837C44.8595 4.79378 44.6303 4.50563 44.5189 4.17164L44.1718 3.09763C44.1063 2.89461 44.3552 2.71125 44.5451 2.82258L44.9119 3.04524C45.2196 3.23515 45.4489 3.5233 45.5602 3.8573Z" fill="#DE2030"/>
<path d="M43.6021 2.94699L44.0212 3.99481C44.1064 4.19127 43.8706 4.38774 43.6676 4.2895L43.2878 4.09304C42.9669 3.92932 42.718 3.66081 42.5805 3.32682L42.1614 2.28555C42.0828 2.08254 42.312 1.88607 42.5084 1.99086L42.8948 2.18077C43.2223 2.35104 43.4646 2.61955 43.6021 2.94699Z" fill="#DE2030"/>
<path d="M41.5782 2.17425L42.0694 3.18932C42.1676 3.37924 41.945 3.59535 41.7419 3.51021L41.349 3.33994C41.015 3.19587 40.7465 2.94701 40.5893 2.62612L40.0982 1.61105C39.9999 1.42113 40.2226 1.20502 40.4256 1.29015L40.8185 1.46042C41.1591 1.6045 41.4276 1.8599 41.5782 2.17425Z" fill="#DE2030"/>
<path d="M39.5097 1.54552L40.0729 2.5213C40.1842 2.70466 39.9812 2.93387 39.7651 2.86184L39.3656 2.72431C39.0185 2.60643 38.7304 2.37067 38.5536 2.06288L37.9904 1.0871C37.8856 0.903728 38.0886 0.674518 38.2982 0.746556L38.7042 0.884082C39.0513 1.00851 39.3329 1.23772 39.5097 1.54552Z" fill="#DE2030"/>
<path d="M37.4008 1.06092L38.0295 1.99086C38.1539 2.17422 37.964 2.41653 37.7479 2.35759L37.3353 2.24626C36.9817 2.14803 36.687 1.93847 36.484 1.64377L35.8553 0.713829C35.7374 0.530461 35.9208 0.288154 36.1369 0.347093L36.5495 0.458424C36.9031 0.556657 37.2043 0.76622 37.4008 1.06092Z" fill="#DE2030"/>
<path d="M35.266 0.726917L35.9601 1.61101C36.0911 1.78128 35.9209 2.03669 35.6982 1.99085L35.2856 1.91226C34.9254 1.84022 34.6111 1.65031 34.3884 1.36871L33.7008 0.48461C33.5633 0.314339 33.7335 0.0589339 33.9562 0.0982271L34.3753 0.183362C34.729 0.2554 35.0433 0.445316 35.266 0.726917Z" fill="#DE2030"/>
<path d="M33.1111 0.536981L33.8642 1.37523C34.0083 1.53241 33.8577 1.80091 33.635 1.77472L33.2094 1.72232C32.8492 1.67648 32.5217 1.50621 32.286 1.24426L31.5263 0.406004C31.3822 0.242283 31.5394 -0.0196716 31.7555 0.00652381L32.1812 0.0589147C32.5479 0.104757 32.8688 0.275027 33.1111 0.536981Z" fill="#DE2030"/>
<path d="M30.9434 0.504278L31.7555 1.28359C31.9127 1.43422 31.7751 1.70927 31.5525 1.69617L31.1268 1.67652C30.7666 1.65688 30.4261 1.5128 30.1707 1.26395L29.3586 0.484632C29.208 0.334008 29.339 0.0524071 29.5616 0.0655049L29.9873 0.0917003C30.354 0.111347 30.688 0.255422 30.9434 0.504278Z" fill="#DE2030"/>
<path d="M28.7823 0.615567L29.6468 1.34249C29.8171 1.48002 29.6992 1.76817 29.4765 1.76817L29.0508 1.77471C28.6841 1.78126 28.337 1.66338 28.0685 1.43417L27.2041 0.707251C27.0338 0.569725 27.1517 0.281575 27.3743 0.281575L27.8 0.275026C28.1667 0.268478 28.5138 0.392906 28.7823 0.615567Z" fill="#DE2030"/>
<path d="M26.6403 0.884075L27.5506 1.54551C27.7274 1.66994 27.6292 1.96464 27.4065 1.98428L26.9808 2.01703C26.6207 2.04977 26.2605 1.95154 25.9789 1.74852L25.0686 1.08709C24.8918 0.956112 24.9834 0.661414 25.2061 0.641767L25.6318 0.609023C25.9985 0.576278 26.3522 0.674511 26.6403 0.884075Z" fill="#DE2030"/>
<path d="M24.5127 1.2967L25.4689 1.89264C25.6522 2.01052 25.5802 2.30522 25.3641 2.34451L24.9384 2.41C24.5782 2.46239 24.218 2.3969 23.9168 2.20699L22.9607 1.61104C22.7773 1.49316 22.8493 1.19846 23.072 1.15917L23.4911 1.09368C23.8513 1.03474 24.2115 1.11333 24.5127 1.2967Z" fill="#DE2030"/>
<path d="M22.423 1.85988L23.4185 2.39034C23.6084 2.49512 23.5625 2.79637 23.3399 2.84221L22.9273 2.94044C22.5671 3.01903 22.2004 2.97318 21.8926 2.80291L20.8972 2.27901C20.7072 2.17422 20.7596 1.87298 20.9757 1.82713L21.3883 1.7289C21.7485 1.65031 22.1087 1.69616 22.423 1.85988Z" fill="#DE2030"/>
<path d="M20.3797 2.56713L21.4079 3.02555C21.6044 3.11069 21.5782 3.41849 21.3621 3.48397L20.9495 3.6084C20.6024 3.71318 20.2357 3.69354 19.9148 3.54946L18.8866 3.09104C18.6836 2.99936 18.7163 2.69811 18.9324 2.63262L19.3385 2.50819C19.6921 2.40341 20.0589 2.42306 20.3797 2.56713Z" fill="#DE2030"/>
<path d="M18.3892 3.41197L19.4501 3.79835C19.6531 3.87039 19.64 4.17819 19.437 4.25677L19.031 4.41395C18.697 4.54492 18.3237 4.54492 17.9897 4.42704L16.9354 4.04066C16.7324 3.96862 16.7389 3.66083 16.9485 3.58224L17.3479 3.42507C17.6885 3.29409 18.0552 3.29409 18.3892 3.41197Z" fill="#DE2030"/>
<path d="M16.4634 4.39429L17.544 4.70863C17.7535 4.76757 17.7666 5.07537 17.5636 5.16705L17.1772 5.35042C16.8432 5.50105 16.4765 5.53379 16.136 5.43556L15.0554 5.12121C14.8458 5.06227 14.8327 4.75448 15.0358 4.66279L15.4221 4.48597C15.7561 4.3288 16.1229 4.3026 16.4634 4.39429Z" fill="#DE2030"/>
<path d="M14.6105 5.51413L15.7107 5.74989C15.9202 5.79573 15.9595 6.09698 15.7631 6.20831L15.3898 6.41132C15.0689 6.58814 14.7021 6.64053 14.3551 6.56849L13.2548 6.33274C13.0453 6.29344 13.0125 5.98565 13.2025 5.88086L13.5823 5.6713C13.9032 5.49448 14.2634 5.44209 14.6105 5.51413Z" fill="#DE2030"/>
<path d="M12.8355 6.75844L13.9554 6.91561C14.1649 6.94181 14.2239 7.24305 14.034 7.36748L13.6738 7.59669C13.3725 7.79316 13.0123 7.87829 12.6587 7.8259L11.5454 7.66873C11.3293 7.64253 11.2769 7.34129 11.4603 7.21686L11.8205 6.9811C12.1282 6.78463 12.4884 6.70605 12.8355 6.75844Z" fill="#DE2030"/>
<path d="M11.1595 8.12059L12.2859 8.19917C12.502 8.21227 12.574 8.51352 12.3972 8.6445L12.0501 8.8999C11.762 9.11601 11.4083 9.2208 11.0547 9.20115L9.93482 9.12256C9.71216 9.10946 9.64013 8.80822 9.81695 8.67724L10.164 8.41529C10.4522 8.19917 10.8058 8.09439 11.1595 8.12059Z" fill="#DE2030"/>
<path d="M9.57439 9.59406H10.7073C10.9235 9.59406 11.0151 9.88875 10.8514 10.0328L10.524 10.3144C10.2489 10.5502 9.90838 10.6812 9.5482 10.6812H8.42834C8.20568 10.6812 8.114 10.3865 8.27772 10.2424L8.60516 9.96079C8.88021 9.72503 9.22075 9.59406 9.57439 9.59406Z" fill="#DE2030"/>
<path d="M8.10127 11.1789L9.22767 11.1003C9.44378 11.0872 9.56166 11.3688 9.40449 11.526L9.09669 11.8272C8.84129 12.0826 8.5073 12.2398 8.15366 12.266L7.02726 12.3446C6.81114 12.3577 6.69981 12.0695 6.85698 11.9124L7.15823 11.6111C7.41364 11.3557 7.74763 11.2051 8.10127 11.1789Z" fill="#DE2030"/>
<path d="M6.74501 12.8619L7.85832 12.7048C8.07443 12.672 8.21195 12.9471 8.06133 13.1173L7.77973 13.4382C7.54397 13.7133 7.21653 13.8901 6.86944 13.936L5.75613 14.0997C5.54002 14.1259 5.40249 13.8508 5.54657 13.6805L5.82817 13.3597C6.07048 13.0846 6.39137 12.9078 6.74501 12.8619Z" fill="#DE2030"/>
<path d="M5.50769 14.6301L6.6079 14.4009C6.81746 14.3551 6.97464 14.617 6.83711 14.7939L6.5817 15.1344C6.35904 15.4291 6.05125 15.6256 5.70416 15.6976L4.60395 15.9334C4.38784 15.9792 4.23721 15.7107 4.36819 15.5339L4.63014 15.1999C4.85281 14.9052 5.1606 14.7022 5.50769 14.6301Z" fill="#DE2030"/>
<path d="M4.3939 16.49L5.47447 16.1757C5.68403 16.1168 5.8543 16.3722 5.73642 16.5555L5.50066 16.9157C5.29765 17.2235 5.0095 17.4396 4.66241 17.5379L3.58185 17.8522C3.37228 17.9111 3.20201 17.6557 3.31989 17.4658L3.55565 17.1122C3.75867 16.8044 4.05336 16.5883 4.3939 16.49Z" fill="#DE2030"/>
<path d="M3.41219 18.4154L4.4731 18.029C4.67612 17.9569 4.86603 18.1992 4.7547 18.3957L4.54514 18.769C4.36832 19.0833 4.09327 19.3257 3.75928 19.4435L2.69836 19.8299C2.49535 19.9019 2.30543 19.6662 2.41676 19.4697L2.61977 19.0964C2.80314 18.7755 3.07819 18.5332 3.41219 18.4154Z" fill="#DE2030"/>
<path d="M2.56685 20.4062L3.60157 19.9478C3.79804 19.8627 4.00105 20.0919 3.90937 20.2949L3.726 20.6813C3.56883 21.0087 3.30687 21.2641 2.98598 21.4082L1.95781 21.8666C1.76134 21.9583 1.55178 21.7291 1.65001 21.5261L1.82683 21.1397C1.98401 20.8123 2.24596 20.5503 2.56685 20.4062Z" fill="#DE2030"/>
<path d="M1.8667 22.4561L2.86213 21.9256C3.05205 21.8208 3.27471 22.0369 3.19612 22.2399L3.03895 22.6394C2.90797 22.98 2.66566 23.2616 2.35132 23.4253L1.35589 23.9557C1.16598 24.054 0.943315 23.8444 1.02845 23.6348L1.17907 23.2354C1.31005 22.8948 1.55236 22.6198 1.8667 22.4561Z" fill="#DE2030"/>
<path d="M1.30991 24.5451L2.26604 23.9426C2.44941 23.8313 2.68517 24.0278 2.61968 24.2373L2.49525 24.6499C2.38392 24.997 2.16126 25.2917 1.86002 25.4816L0.903882 26.0775C0.720514 26.1889 0.484756 25.9924 0.550244 25.7829L0.674672 25.3703C0.786003 25.0232 1.00866 24.7285 1.30991 24.5451Z" fill="#DE2030"/>
<path d="M0.897592 26.667L1.81443 26.0055C1.9847 25.8746 2.23356 26.0579 2.18117 26.274L2.08948 26.6866C2.00435 27.0468 1.80133 27.3546 1.51318 27.5642L0.602894 28.2256C0.432623 28.35 0.177218 28.1732 0.229609 27.9571L0.327842 27.538C0.412977 27.1843 0.609442 26.8765 0.897592 26.667Z" fill="#DE2030"/>
<path d="M0.634764 28.815L1.49921 28.088C1.66293 27.9505 1.92489 28.1142 1.89214 28.3304L1.82011 28.756C1.76772 29.1162 1.58435 29.4371 1.31584 29.6598L0.451396 30.3867C0.287674 30.5242 0.0257199 30.367 0.0584642 30.1444L0.123953 29.7187C0.182892 29.3585 0.36626 29.0376 0.634764 28.815Z" fill="#DE2030"/>
<path d="M0.523756 30.9761L1.33581 30.1902C1.49299 30.0396 1.76149 30.1837 1.74184 30.4063L1.7091 30.832C1.67636 31.1922 1.51263 31.5262 1.26378 31.775L0.451719 32.5543C0.294546 32.705 0.0194944 32.5609 0.0456898 32.3382L0.084983 31.9126C0.111178 31.5524 0.268351 31.2184 0.523756 30.9761Z" fill="#DE2030"/>
<path d="M0.56314 33.1372L1.32281 32.299C1.46688 32.1418 1.74848 32.2597 1.74193 32.4823L1.72884 32.9146C1.72229 33.2747 1.59131 33.6218 1.35555 33.8838L0.602434 34.722C0.458359 34.8792 0.176758 34.7548 0.176758 34.5321L0.189856 34.1064C0.196404 33.7397 0.327382 33.3992 0.56314 33.1372Z" fill="#DE2030"/>
<path d="M0.759773 35.2918L1.4474 34.4011C1.58493 34.2309 1.87308 34.3356 1.88618 34.5583L1.90582 34.984C1.92547 35.3507 1.81414 35.6978 1.59803 35.9794L0.903847 36.87C0.766321 37.0403 0.478172 36.9355 0.465074 36.7129L0.445427 36.2806C0.43233 35.9205 0.537111 35.5668 0.759773 35.2918Z" fill="#DE2030"/>
<path d="M1.10012 37.4267L1.72881 36.4902C1.84669 36.3134 2.14793 36.392 2.16758 36.6147L2.21997 37.0403C2.26581 37.4005 2.18068 37.7607 1.98421 38.0554L1.34897 38.9853C1.23109 39.1687 0.936394 39.0836 0.910199 38.8609L0.857808 38.4418C0.811966 38.0751 0.897101 37.7214 1.10012 37.4267Z" fill="#DE2030"/>
<path d="M1.58434 39.5354L2.14754 38.5531C2.25887 38.3697 2.56012 38.4352 2.59941 38.6513L2.68455 39.0705C2.75004 39.4306 2.6911 39.7908 2.51428 40.0986L1.95108 41.0744C1.83975 41.2643 1.5385 41.1988 1.4992 40.9827L1.42062 40.5571C1.34858 40.2034 1.40752 39.8367 1.58434 39.5354Z" fill="#DE2030"/>
<path d="M2.22019 41.5984L2.7179 40.5833C2.80959 40.3934 3.11738 40.4327 3.16977 40.6488L3.2811 41.0613C3.37279 41.415 3.34004 41.7817 3.18287 42.1026L2.69171 43.1111C2.60002 43.3076 2.29223 43.2618 2.23329 43.0522L2.12196 42.6396C2.03027 42.286 2.06302 41.9192 2.22019 41.5984Z" fill="#DE2030"/>
<path d="M2.99891 43.6154L3.41804 42.5741C3.50317 42.3711 3.81097 42.3907 3.88301 42.6068L4.02053 43.0063C4.13841 43.3534 4.13186 43.7201 3.99434 44.0476L3.57521 45.0954C3.49662 45.2984 3.18883 45.2722 3.11679 45.0627L2.97271 44.6566C2.86138 44.3161 2.86793 43.9494 2.99891 43.6154Z" fill="#DE2030"/>
<path d="M3.91621 45.5735L4.2633 44.506C4.32879 44.2965 4.63658 44.2965 4.72172 44.506L4.89199 44.899C5.02952 45.233 5.04916 45.5997 4.93783 45.9403L4.59074 47.0077C4.52525 47.2173 4.21746 47.2173 4.13232 47.0143L3.9686 46.6148C3.82453 46.2808 3.80488 45.9141 3.91621 45.5735Z" fill="#DE2030"/>
<path d="M4.96384 47.4661L5.23889 46.3725C5.29128 46.1629 5.59908 46.1432 5.69731 46.3397L5.89378 46.7195C6.0575 47.047 6.09679 47.4137 6.01166 47.7543L5.7366 48.8479C5.69076 49.0575 5.38297 49.0837 5.27818 48.8807L5.08827 48.5008C4.92455 48.1734 4.8787 47.8132 4.96384 47.4661Z" fill="#DE2030"/>
<path d="M6.14317 49.2801L6.33963 48.1668C6.37893 47.9573 6.68017 47.9114 6.79805 48.1013L7.02072 48.4746C7.20408 48.7824 7.26957 49.1491 7.21063 49.4962L7.01417 50.603C6.97487 50.8191 6.67363 50.8584 6.5623 50.6685L6.33963 50.3017C6.15627 49.9874 6.08423 49.6272 6.14317 49.2801Z" fill="#DE2030"/>
<path d="M7.44593 51.0025L7.57036 49.8826C7.59001 49.6731 7.89125 49.6076 8.01568 49.791L8.26454 50.138C8.4741 50.4393 8.56579 50.7929 8.52649 51.1466L8.40861 52.2664C8.38897 52.4825 8.08772 52.548 7.95674 52.3647L7.71443 52.011C7.50487 51.7163 7.41319 51.3561 7.44593 51.0025Z" fill="#DE2030"/>
<path d="M8.87403 52.6397L8.91333 51.5133C8.91987 51.2972 9.21457 51.2121 9.3521 51.3823L9.6206 51.7163C9.84981 51.9979 9.96769 52.345 9.95459 52.6987L9.9153 53.8251C9.90875 54.0412 9.61405 54.1263 9.47653 53.9561L9.20802 53.6221C8.97881 53.3405 8.86093 52.9934 8.87403 52.6397Z" fill="#DE2030"/>
<path d="M10.3996 54.1656L10.3604 53.0392C10.3604 52.8231 10.642 52.7183 10.7926 52.882L11.0873 53.1898C11.3361 53.4583 11.4737 53.7988 11.4933 54.1525L11.526 55.2789C11.5326 55.495 11.2444 55.5998 11.0938 55.4361L10.8057 55.1217C10.5568 54.8598 10.4127 54.5192 10.3996 54.1656Z" fill="#DE2030"/>
<path d="M12.0368 55.5801L11.919 54.4603C11.8993 54.2442 12.1744 54.1197 12.3381 54.2704L12.6524 54.5651C12.9209 54.8139 13.0847 55.1414 13.1174 55.495L13.2418 56.6149C13.2615 56.831 12.9799 56.9554 12.8162 56.8048L12.5084 56.5101C12.2399 56.2612 12.0761 55.9338 12.0368 55.5801Z" fill="#DE2030"/>
<path d="M13.7656 56.8834L13.5691 55.7701C13.5364 55.5605 13.8049 55.4164 13.9752 55.5539L14.3092 55.8225C14.5908 56.0517 14.7807 56.3726 14.8396 56.7196L15.0361 57.8264C15.0754 58.0425 14.8003 58.1866 14.6301 58.0491L14.2961 57.774C14.0145 57.5448 13.8245 57.2305 13.7656 56.8834Z" fill="#DE2030"/>
<path d="M15.5801 58.0556L15.3116 56.962C15.2592 56.7524 15.5146 56.5887 15.698 56.7197L16.0517 56.9685C16.3464 57.1781 16.5559 57.4793 16.641 57.8199L16.9161 58.9135C16.9685 59.1231 16.7065 59.2868 16.5232 59.1558L16.1761 58.9135C15.8748 58.704 15.6653 58.4027 15.5801 58.0556Z" fill="#DE2030"/>
<path d="M17.472 59.1035L17.125 58.0294C17.0595 57.8264 17.3083 57.6431 17.4982 57.7609L17.865 57.9836C18.1728 58.1735 18.4085 58.4551 18.5133 58.7957L18.867 59.8697C18.9324 60.0727 18.6836 60.2495 18.4937 60.1382L18.1269 59.9155C17.8126 59.7256 17.5834 59.444 17.472 59.1035Z" fill="#DE2030"/>
<path d="M19.437 60.0137L19.0179 58.9725C18.9328 58.7695 19.1685 58.573 19.365 58.6712L19.7448 58.8677C20.0723 59.038 20.3211 59.3065 20.4521 59.6339L20.8778 60.6817C20.9564 60.8782 20.7206 61.0747 20.5241 60.9764L20.1443 60.78C19.8169 60.6162 19.568 60.3477 19.437 60.0137Z" fill="#DE2030"/>
<path d="M21.4608 60.7865L20.9631 59.778C20.8714 59.5815 21.0875 59.3654 21.2971 59.4571L21.69 59.6208C22.024 59.7649 22.2925 60.0203 22.4497 60.3346L22.9408 61.3497C23.0325 61.5462 22.8164 61.7557 22.6068 61.6706L22.2139 61.5003C21.8799 61.3562 21.6114 61.1074 21.4608 60.7865Z" fill="#DE2030"/>
<path d="M23.5303 61.4152L22.9671 60.4459C22.8557 60.256 23.0587 60.0268 23.2748 60.0988L23.6743 60.2429C24.0214 60.3608 24.303 60.59 24.4798 60.8978L25.043 61.8736C25.1544 62.0635 24.9514 62.2927 24.7352 62.2141L24.3358 62.0766C23.9887 61.9587 23.7071 61.723 23.5303 61.4152Z" fill="#DE2030"/>
<path d="M25.6392 61.8998L25.004 60.9699C24.8861 60.7865 25.076 60.5442 25.2856 60.6031L25.6982 60.7145C26.0518 60.8127 26.3531 61.0223 26.5495 61.317L27.1848 62.2534C27.3026 62.4303 27.1127 62.6726 26.8966 62.6136L26.484 62.5023C26.1304 62.4106 25.8357 62.1945 25.6392 61.8998Z" fill="#DE2030"/>
<path d="M27.7741 62.2403L27.08 61.3497C26.949 61.1794 27.1193 60.924 27.3354 60.9698L27.7545 61.055C28.1147 61.1205 28.429 61.3104 28.6451 61.592L29.3393 62.4826C29.4703 62.6529 29.3 62.9083 29.0839 62.8625L28.6648 62.7773C28.3046 62.7118 27.9903 62.5219 27.7741 62.2403Z" fill="#DE2030"/>
<path d="M29.9279 62.4237L29.1748 61.592C29.0307 61.4283 29.1813 61.1598 29.404 61.1925L29.8231 61.2449C30.1899 61.2842 30.5173 61.4545 30.7531 61.7164L31.5062 62.5547C31.6503 62.7184 31.4996 62.9869 31.277 62.9541L30.8513 62.9017C30.4911 62.8559 30.1637 62.6922 29.9279 62.4237Z" fill="#DE2030"/>
<path d="M32.0893 62.463L31.2838 61.6771C31.1266 61.5265 31.2576 61.2515 31.4803 61.2646L31.906 61.2907C32.2727 61.3104 32.6132 61.4545 32.8686 61.6968L33.6741 62.4826C33.8313 62.6333 33.7003 62.9083 33.4777 62.8952L33.052 62.8756C32.6853 62.8494 32.3447 62.7053 32.0893 62.463Z" fill="#DE2030"/>
<path d="M34.2502 62.3451L33.3857 61.6182C33.222 61.4807 33.3333 61.1991 33.556 61.1925L33.9882 61.186C34.3484 61.1794 34.6955 61.3039 34.9705 61.5331L35.835 62.2534C35.9987 62.391 35.8874 62.6791 35.6647 62.6791L35.2325 62.6857C34.8658 62.6922 34.5252 62.5743 34.2502 62.3451Z" fill="#DE2030"/>
<path d="M36.3981 62.0832L35.4878 61.4152C35.311 61.2908 35.4093 60.9961 35.6254 60.9764L36.0576 60.9437C36.4178 60.9109 36.7714 61.0092 37.0596 61.2187L37.9699 61.8802C38.1467 62.0046 38.055 62.2993 37.8323 62.3189L37.4067 62.3517C37.0399 62.3844 36.6863 62.2862 36.3981 62.0832Z" fill="#DE2030"/>
<path d="M38.5203 61.664L37.5642 61.0681C37.3808 60.9568 37.4528 60.6555 37.6755 60.6228L38.1012 60.5573C38.4614 60.4983 38.8216 60.5704 39.1228 60.7603L40.0789 61.3562C40.2623 61.4676 40.1837 61.7688 39.9676 61.8016L39.5419 61.867C39.1817 61.926 38.8216 61.8539 38.5203 61.664Z" fill="#DE2030"/>
<path d="M40.6159 61.1009L39.614 60.5769C39.424 60.4722 39.4764 60.1709 39.6925 60.1185L40.1117 60.0268C40.4719 59.9417 40.832 59.9875 41.1464 60.1578L42.1418 60.6883C42.3317 60.7865 42.2793 61.0878 42.0632 61.1401L41.6441 61.2318C41.2905 61.317 40.9237 61.2711 40.6159 61.1009Z" fill="#DE2030"/>
<path d="M42.6596 60.4001L41.6249 59.9351C41.4284 59.85 41.4612 59.5488 41.6707 59.4833L42.0833 59.3588C42.4304 59.2541 42.7971 59.2737 43.1246 59.4178L44.1528 59.8762C44.3492 59.9613 44.3165 60.2691 44.1069 60.3346L43.6943 60.459C43.3473 60.5638 42.9805 60.5442 42.6596 60.4001Z" fill="#DE2030"/>
<path d="M44.6506 59.5488L43.5897 59.1624C43.3866 59.0903 43.3932 58.7825 43.6028 58.704L44.0022 58.5533C44.3428 58.4224 44.7095 58.4158 45.0435 58.5402L46.1044 58.9201C46.3074 58.9987 46.2943 59.3065 46.0913 59.385L45.6918 59.5357C45.3448 59.6666 44.978 59.6732 44.6506 59.5488Z" fill="#DE2030"/>
<path d="M46.5751 58.5664L45.488 58.2521C45.285 58.1931 45.2719 57.8853 45.4684 57.7937L45.8613 57.6168C46.1953 57.4597 46.562 57.4335 46.896 57.5317L47.9831 57.8395C48.1927 57.8984 48.2058 58.2062 48.0028 58.2979L47.6098 58.4813C47.2824 58.6319 46.9157 58.6647 46.5751 58.5664Z" fill="#DE2030"/>
<path d="M48.4289 57.4531L47.3221 57.2174C47.1125 57.1715 47.0798 56.8637 47.2763 56.7589L47.6496 56.5494C47.9704 56.3791 48.3306 56.3202 48.6777 56.3922L49.7845 56.628C49.994 56.6738 50.0268 56.975 49.8303 57.0864L49.457 57.2894C49.1361 57.4662 48.776 57.5252 48.4289 57.4531Z" fill="#DE2030"/>
<path d="M50.1968 56.2088L49.0835 56.0517C48.8674 56.0189 48.815 55.7177 48.9984 55.5998L49.3585 55.364C49.6663 55.1676 50.0265 55.089 50.3736 55.1348L51.4935 55.292C51.703 55.3248 51.762 55.626 51.5721 55.7439L51.2119 55.9796C50.9041 56.1761 50.5504 56.2547 50.1968 56.2088Z" fill="#DE2030"/>
<path d="M51.8803 54.8467L50.7538 54.7681C50.5377 54.7484 50.4657 54.4537 50.6425 54.3227L50.9831 54.0608C51.2778 53.8447 51.6248 53.7399 51.9785 53.7661L53.1049 53.8447C53.321 53.8578 53.3996 54.1525 53.2162 54.29L52.8757 54.5454C52.581 54.7615 52.2339 54.8663 51.8803 54.8467Z" fill="#DE2030"/>
<path d="M28.8604 6.6471L30.5041 5.46175L29.8689 3.51674L31.5061 4.71518L33.1564 3.51019L32.5212 5.43556L34.178 6.634L32.1479 6.62745L31.5192 8.57246L30.9036 6.64055L28.8604 6.6471Z" fill="#DE2030"/>
<path d="M19.5549 9.55478L20.6224 7.82588L19.293 6.28035L21.2642 6.75841L22.3251 5.01642L22.4757 7.03347L24.4666 7.51153L22.587 8.27775L22.7573 10.3144L21.441 8.76891L19.5549 9.55478Z" fill="#DE2030"/>
<path d="M12.0759 15.8024L12.4033 13.7984L10.5762 12.875L12.5801 12.5672L12.8945 10.5436L13.8113 12.3577L15.8284 12.0302L14.3876 13.4579L15.3175 15.2785L13.5166 14.3485L12.0759 15.8024Z" fill="#DE2030"/>
<path d="M7.55704 24.4338L7.09207 22.4626L5.04883 22.3054L6.78428 21.251L6.29966 19.2667L7.83864 20.5896L9.58064 19.5156L8.79477 21.3886L10.3534 22.7114L8.32981 22.5412L7.55704 24.4338Z" fill="#DE2030"/>
<path d="M6.68016 34.1392L5.49481 32.4954L3.55635 33.1307L4.75479 31.4935L3.5498 29.8432L5.47517 30.4784L6.67361 28.8215L6.66051 30.8517L8.60552 31.4804L6.67361 32.096L6.68016 34.1392Z" fill="#DE2030"/>
<path d="M9.58719 43.4451L7.86484 42.3776L6.31276 43.707L6.79737 41.7358L5.04883 40.6749L7.07243 40.5243L7.54394 38.5334L8.31016 40.413L10.3534 40.2427L8.80132 41.559L9.58719 43.4451Z" fill="#DE2030"/>
<path d="M15.8352 50.9239L13.8312 50.5964L12.9079 52.4236L12.6001 50.4196L10.583 50.1053L12.3905 49.1884L12.0696 47.1714L13.4972 48.6121L15.3178 47.6822L14.3879 49.4831L15.8352 50.9239Z" fill="#DE2030"/>
<path d="M24.4734 55.4426L22.4956 55.9076L22.3385 57.9508L21.2907 56.2154L19.2998 56.7L20.6292 55.161L19.5552 53.419L21.4216 54.2049L22.7445 52.6462L22.5808 54.6698L24.4734 55.4426Z" fill="#DE2030"/>
<path d="M34.178 56.3201L32.5277 57.5055L33.1695 59.4439L31.5323 58.2455L29.882 59.4505L30.5172 57.5251L28.8604 56.3267L30.8839 56.3398L31.5126 54.3948L32.1348 56.3267L34.178 56.3201Z" fill="#DE2030"/>
<path d="M43.4783 53.4125L42.4109 55.1348L43.7468 56.6869L41.7756 56.2023L40.7082 57.9508L40.5575 55.9272L38.5732 55.4557L40.4462 54.6895L40.2825 52.6462L41.5923 54.1983L43.4783 53.4125Z" fill="#DE2030"/>
<path d="M50.9631 47.1649L50.6357 49.1688L52.4563 50.0922L50.4523 50.4L50.138 52.417L49.2277 50.6096L47.2041 50.9304L48.6514 49.5028L47.7149 47.6822L49.5158 48.6122L50.9631 47.1649Z" fill="#DE2030"/>
<path d="M55.4819 38.5269L55.9469 40.5047L57.9836 40.6618L56.2481 41.7097L56.7327 43.7005L55.1938 42.3711L53.4583 43.4451L54.2442 41.5787L52.6855 40.2558L54.7026 40.4195L55.4819 38.5269Z" fill="#DE2030"/>
<path d="M56.3531 28.8215L57.5384 30.4718L59.4835 29.8301L58.285 31.4673L59.49 33.1176L57.5646 32.4823L56.3662 34.1392L56.3727 32.1156L54.4277 31.4869L56.3596 30.8648L56.3531 28.8215Z" fill="#DE2030"/>
<path d="M53.4452 19.5222L55.1741 20.5896L56.7196 19.2537L56.2416 21.2249L57.9836 22.2923L55.96 22.443L55.4885 24.4273L54.7222 22.5543L52.6855 22.718L54.2311 21.4082L53.4452 19.5222Z" fill="#DE2030"/>
<path d="M47.1973 12.0368L49.2012 12.3642L50.1246 10.5436L50.4324 12.5476L52.456 12.8619L50.642 13.7722L50.9694 15.7958L49.5418 14.3485L47.7212 15.285L48.6511 13.4841L47.1973 12.0368Z" fill="#DE2030"/>
<path d="M38.5664 7.51808L40.5376 7.05311L40.6948 5.01642L41.7491 6.75187L43.7335 6.26725L42.4106 7.80623L43.4846 9.54168L41.6116 8.75582L40.2888 10.3144L40.459 8.2974L38.5664 7.51808Z" fill="#DE2030"/>
<path fill-rule="evenodd" clip-rule="evenodd" d="M31.5193 53.0719C19.6135 53.0719 9.92773 43.3862 9.92773 31.4804C9.92773 19.5745 19.6135 9.89532 31.5193 9.89532C43.4251 9.89532 53.1109 19.5745 53.1109 31.4804C53.1109 43.3862 43.4251 53.0719 31.5193 53.0719ZM31.5193 10.3734C19.882 10.3734 10.4123 19.843 10.4123 31.4804C10.4123 43.1177 19.882 52.5873 31.5193 52.5873C43.1566 52.5873 52.6263 43.1177 52.6263 31.4804C52.6263 19.843 43.1566 10.3734 31.5193 10.3734Z" fill="#DE2030"/>
<path d="M25.7435 49.863L26.3722 50.0725L26.2085 50.544L24.4141 49.9547L24.5712 49.4766L25.213 49.6862L25.881 47.656L26.4115 47.8328L25.7435 49.863Z" fill="#DE2030"/>
<path d="M23.2287 49.4308L23.8967 48.0621C24.0997 47.6561 24.0539 47.3745 23.7985 47.25C23.5365 47.119 23.2942 47.25 23.0912 47.6692L22.4167 49.0313L21.9189 48.789L22.5738 47.4596C22.934 46.7261 23.4514 46.5427 24.0277 46.8309C24.5843 47.1059 24.7481 47.5971 24.3748 48.3502L23.7264 49.6796L23.2287 49.4308ZM22.5018 49.5356C22.4363 49.6731 22.2922 49.732 22.1613 49.6731C22.0368 49.6076 21.991 49.457 22.063 49.3195C22.122 49.1885 22.2726 49.1295 22.397 49.1885C22.528 49.254 22.5673 49.4111 22.5018 49.5356ZM23.1829 49.8761C23.1174 50.0136 22.9668 50.066 22.8423 50.0071C22.7179 49.9482 22.6786 49.791 22.7441 49.6535C22.8096 49.529 22.9537 49.4635 23.0781 49.5225C23.2091 49.588 23.2484 49.7451 23.1829 49.8761Z" fill="#DE2030"/>
<path fill-rule="evenodd" clip-rule="evenodd" d="M21.1327 48.2782C20.969 48.2062 20.7398 48.0752 20.4909 47.9049C20.1897 47.7019 20.0129 47.5054 19.9539 47.2893C19.9016 47.0994 19.9408 46.9029 20.0784 46.6999C20.2683 46.4249 20.5761 46.3594 20.7987 46.4118L20.8053 46.3987C20.7071 46.2415 20.7267 46.045 20.8118 45.8027C20.9166 45.5146 21.0476 45.1871 21.0672 45.0758L21.5388 45.3967C21.5322 45.4818 21.4536 45.6914 21.3358 46.0057C21.2048 46.3135 21.2375 46.4445 21.4209 46.5755L21.565 46.6737L22.1478 45.8093L22.5997 46.1236L21.1327 48.2782ZM21.3227 47.0274L21.1393 46.9029C20.9101 46.7458 20.6874 46.7785 20.5564 46.9684C20.4255 47.1714 20.4844 47.3548 20.6874 47.5054C20.7987 47.5775 20.8708 47.6102 20.9101 47.6299L21.3227 47.0274Z" fill="#DE2030"/>
<path d="M18.9787 46.7785L18.5661 46.4118L19.3454 45.5408L19.3388 45.5342C19.2275 45.5735 19.1227 45.6063 19.0245 45.639L18.0225 45.9206L17.5117 45.4622L18.8673 45.1675L19.2406 43.4648L19.7252 43.9036L19.4109 45.1544L19.758 45.0889L20.3343 44.4471L20.7403 44.8138L18.9787 46.7785Z" fill="#DE2030"/>
<path d="M16.7195 45.2068C16.6081 45.3116 16.4444 45.305 16.3527 45.2002C16.261 45.0954 16.2741 44.9383 16.3855 44.8335C16.4902 44.7418 16.654 44.7353 16.7457 44.84C16.8439 44.9448 16.8242 45.1085 16.7195 45.2068ZM16.6802 44.5322L18.6383 42.7575L19.0116 43.1701L17.0534 44.9448L16.6802 44.5322Z" fill="#DE2030"/>
<path d="M17.9046 41.8668L17.0336 42.5086L16.2412 44.0607L15.8613 43.5499L16.2281 42.967C16.3329 42.7968 16.418 42.6658 16.5228 42.5152L16.5162 42.5086C16.3525 42.5676 16.1953 42.6069 15.9989 42.6592L15.3374 42.8361L14.9707 42.3318L16.6931 42.0764L17.5771 41.4215L17.9046 41.8668Z" fill="#DE2030"/>
<path d="M15.2257 39.7188L15.6711 40.5112L16.2146 40.2034L15.7234 39.3193L16.1557 39.077L16.9153 40.4523L14.6101 41.7424L13.8701 40.413L14.2958 40.1707L14.7673 41.0155L15.2454 40.747L14.8066 39.9546L15.2257 39.7188Z" fill="#DE2030"/>
<path d="M14.9774 36.2806C15.0625 36.3592 15.1935 36.5557 15.2917 36.8373C15.5733 37.6363 15.1869 38.2387 14.4731 38.4942C13.6218 38.7889 12.9472 38.3959 12.7049 37.6952C12.6067 37.4201 12.5936 37.1909 12.6132 37.0796L13.0979 37.0272C13.0913 37.1516 13.0979 37.3154 13.1633 37.5053C13.3074 37.9179 13.6938 38.1471 14.2439 37.9506C14.7482 37.7738 14.9643 37.3874 14.8006 36.9224C14.7416 36.7653 14.6434 36.6015 14.5648 36.5164L14.9774 36.2806Z" fill="#DE2030"/>
<path d="M12.2335 35.8157L13.7266 35.521C14.1719 35.4293 14.3684 35.2263 14.3094 34.9447C14.2505 34.6631 14.0082 34.5452 13.5498 34.6369L12.0566 34.9381L11.9453 34.3946L13.3992 34.0999C14.1981 33.9427 14.6565 34.244 14.781 34.8726C14.9054 35.4817 14.6107 35.9074 13.7855 36.0711L12.3382 36.3658L12.2335 35.8157Z" fill="#DE2030"/>
<path d="M13.3859 31.2904C13.0651 31.3035 12.6852 31.3232 12.2988 31.3297V31.3428C12.6394 31.4083 13.0127 31.5065 13.327 31.5982L14.3683 31.8733L14.3748 32.312L13.3532 32.5936C13.0454 32.6788 12.6721 32.7705 12.325 32.836V32.8425C12.6852 32.849 13.0913 32.849 13.4252 32.8621L14.4272 32.8883L14.4403 33.4057L11.7946 33.2944L11.7749 32.5544L12.6525 32.2989C12.9603 32.2138 13.2877 32.1352 13.5955 32.0697V32.0632C13.2877 31.9977 12.9406 31.9191 12.6394 31.8471L11.7553 31.5982L11.7422 30.8713L14.3814 30.6879L14.3945 31.2315L13.3859 31.2904Z" fill="#DE2030"/>
<path d="M11.8794 29.2538L12.8813 29.3913L13.0058 28.4876L11.9972 28.35L12.0758 27.7999L14.6954 28.1601L14.6168 28.7037L13.5231 28.5596L13.3987 29.4633L14.4924 29.614L14.4203 30.1641L11.8008 29.8104L11.8794 29.2538Z" fill="#DE2030"/>
<path d="M12.4365 26.3198L13.8969 26.7455C14.3356 26.8765 14.5976 26.7914 14.6827 26.5163C14.7613 26.2347 14.5976 26.0186 14.1523 25.8876L12.6919 25.4554L12.849 24.9249L14.2701 25.3441C15.056 25.5798 15.318 26.0513 15.1346 26.6669C14.9578 27.2629 14.4994 27.5117 13.6939 27.2694L12.2793 26.8503L12.4365 26.3198Z" fill="#DE2030"/>
<path fill-rule="evenodd" clip-rule="evenodd" d="M13.2285 24.0408C13.2744 23.8706 13.3595 23.6152 13.4839 23.3467C13.6345 23.0127 13.7917 22.8097 14.0013 22.7114C14.1781 22.6263 14.3811 22.6328 14.5972 22.7376C14.905 22.8751 15.0229 23.1764 15.0098 23.3991L15.0229 23.4056C15.1604 23.2812 15.3634 23.2681 15.6123 23.3139C15.9135 23.3663 16.2606 23.4449 16.372 23.4383L16.1362 23.9557C16.0511 23.9623 15.8284 23.9295 15.501 23.8575C15.1735 23.7789 15.0491 23.8378 14.9509 24.0408L14.8788 24.198L15.8284 24.6302L15.5992 25.128L13.2285 24.0408ZM14.4924 24.0146L14.5841 23.8182C14.6955 23.5628 14.63 23.3532 14.4204 23.255C14.1977 23.1567 14.0275 23.2419 13.9161 23.4776C13.8572 23.5955 13.8376 23.6741 13.831 23.7134L14.4924 24.0146Z" fill="#DE2030"/>
<path d="M13.9815 21.4934C13.8506 21.4148 13.8113 21.2576 13.8833 21.1332C13.9488 21.0153 14.106 20.9826 14.2369 21.0611C14.3614 21.1332 14.4138 21.2904 14.3417 21.4082C14.2697 21.5327 14.106 21.5654 13.9815 21.4934ZM14.6102 21.2511L16.8892 22.5936L16.6076 23.0716L14.3286 21.7291L14.6102 21.2511Z" fill="#DE2030"/>
<path d="M17.525 21.6243L16.6474 20.9825L14.9316 20.6878L15.3049 20.177L15.9664 20.3473C16.1694 20.3997 16.3134 20.4455 16.4903 20.4979V20.4914C16.392 20.3473 16.3004 20.2098 16.1956 20.0395L15.8288 19.4632L16.1956 18.9589L16.9618 20.5241L17.8524 21.179L17.525 21.6243Z" fill="#DE2030"/>
<path d="M18.7826 18.4154L18.1604 19.0768L18.6188 19.5025L19.313 18.769L19.6667 19.1095L18.5861 20.249L16.6738 18.4285L17.7151 17.3282L18.0687 17.6622L17.4073 18.363L17.8068 18.7428L18.4289 18.0814L18.7826 18.4154Z" fill="#DE2030"/>
<path d="M19.0244 16.824L18.5201 17.2497L18.1992 16.8633L19.6531 15.6518L19.974 16.0382L19.4566 16.4704L20.8188 18.1207L20.3931 18.4744L19.0244 16.824Z" fill="#DE2030"/>
<path d="M19.9806 14.9248C19.8955 14.8004 19.9217 14.6432 20.0396 14.5581C20.1575 14.4861 20.3081 14.5188 20.3932 14.6498C20.4718 14.7611 20.4587 14.9248 20.3408 15.0034C20.223 15.0886 20.0592 15.0427 19.9806 14.9248ZM20.6552 14.9772L22.1418 17.1646L21.6768 17.4789L20.1902 15.2916L20.6552 14.9772Z" fill="#DE2030"/>
<path d="M23.0254 15.9006C23.1957 15.9072 23.438 15.881 23.6541 15.7696C23.8833 15.6583 23.9554 15.4946 23.8768 15.344C23.8047 15.1933 23.6607 15.1606 23.3398 15.1933C22.9075 15.2326 22.5604 15.1344 22.3902 14.7938C22.1937 14.3878 22.3509 13.9228 22.8748 13.6674C23.1236 13.543 23.3332 13.5103 23.4969 13.5037L23.5952 13.9949C23.4838 13.9949 23.2939 14.0014 23.0778 14.1062C22.8617 14.2175 22.8093 14.3747 22.8748 14.4991C22.9468 14.6498 23.104 14.6498 23.4445 14.6301C23.9161 14.5908 24.2042 14.7153 24.3679 15.0493C24.5644 15.4487 24.4465 15.9268 23.844 16.228C23.5886 16.3525 23.307 16.4049 23.1433 16.3918L23.0254 15.9006Z" fill="#DE2030"/>
<path fill-rule="evenodd" clip-rule="evenodd" d="M25.4226 14.7611L25.475 15.4553L24.9315 15.6452L24.7939 12.9012L25.4816 12.6655L27.0599 14.9183L26.4901 15.1147L26.0906 14.5319L25.4226 14.7611ZM25.8745 14.139L25.5471 13.6543C25.4554 13.5234 25.3506 13.3531 25.2655 13.2156H25.2589C25.272 13.3793 25.3048 13.5758 25.3113 13.7329L25.3571 14.3158L25.8745 14.139Z" fill="#DE2030"/>
<path d="M27.4334 14.8331L26.9619 12.2333L27.6037 12.1154L28.2782 12.9733C28.4681 13.2221 28.6712 13.5234 28.8349 13.7919H28.8414C28.7432 13.4579 28.6712 13.1043 28.5991 12.7179L28.4616 11.9582L28.9659 11.8665L29.4374 14.4664L28.8611 14.5712L28.1669 13.6609C27.9704 13.412 27.7543 13.1043 27.5775 12.8226L27.571 12.8292C27.643 13.1632 27.715 13.5299 27.7936 13.9556L27.9377 14.7415L27.4334 14.8331Z" fill="#DE2030"/>
<path fill-rule="evenodd" clip-rule="evenodd" d="M30.5506 13.7068L30.3868 14.3878L29.8105 14.4009L30.5113 11.7421L31.2447 11.729L32.0568 14.3551L31.4543 14.3682L31.2513 13.6937L30.5506 13.7068ZM31.1662 13.2483L31.0024 12.6917C30.9566 12.5345 30.9108 12.338 30.8715 12.1809H30.8649C30.8322 12.338 30.7994 12.5411 30.7601 12.6982L30.6226 13.2614L31.1662 13.2483Z" fill="#DE2030"/>
<path d="M32.8098 14.414L32.908 13.34L32.2793 11.7159L32.908 11.7683L33.1045 12.4297C33.1634 12.6262 33.1961 12.7702 33.242 12.9471H33.2551C33.3206 12.7899 33.3926 12.6458 33.4843 12.4625L33.7921 11.8534L34.4077 11.9123L33.4646 13.3727L33.3599 14.4664L32.8098 14.414Z" fill="#DE2030"/>
<path d="M35.5993 12.1481L35.095 14.7415L34.5449 14.6367L35.0492 12.0368L35.5993 12.1481ZM35.1605 11.6373C35.1933 11.4867 35.3242 11.395 35.4683 11.4212C35.5993 11.4474 35.6844 11.5849 35.6517 11.7355C35.6255 11.8731 35.5011 11.9713 35.3635 11.9451C35.2195 11.9189 35.1343 11.7748 35.1605 11.6373Z" fill="#DE2030"/>
<path d="M36.9482 15.2457L37.0923 12.4886L37.6621 12.6982L37.5704 13.8508C37.5442 14.1717 37.518 14.4795 37.4591 14.8135H37.4722C37.6359 14.5384 37.8127 14.2699 37.9961 14.0145L38.6706 13.0518L39.2207 13.2549L37.5573 15.4618L36.9482 15.2457Z" fill="#DE2030"/>
<path d="M40.4715 15.5797L39.666 15.1672L39.3844 15.7304L40.2816 16.1888L40.059 16.6276L38.6641 15.9072L39.869 13.5562L41.2181 14.2503L40.9955 14.6891L40.1441 14.2503L39.8887 14.7349L40.6942 15.1475L40.4715 15.5797Z" fill="#DE2030"/>
<path d="M42.7448 15.8352L42.2143 15.4422L42.5156 15.0362L44.0349 16.1626L43.7337 16.5686L43.1967 16.1691L41.9196 17.8915L41.4678 17.5575L42.7448 15.8352Z" fill="#DE2030"/>
<path d="M44.5778 18.7428L43.9229 18.1207L43.4907 18.5726L44.2242 19.2668L43.8902 19.6269L42.7441 18.5464L44.5647 16.6276L45.6649 17.6688L45.3309 18.0225L44.6302 17.3676L44.2569 17.7671L44.9118 18.3827L44.5778 18.7428Z" fill="#DE2030"/>
<path d="M46.2871 18.3303L46.6342 18.7559L45.7239 19.4894L45.737 19.5025C45.8483 19.4763 45.9597 19.4632 46.0644 19.4501L47.0992 19.3257L47.5314 19.8561L46.143 19.9347L45.5078 21.5523L45.0952 21.0546L45.5995 19.8627L45.2524 19.8758L44.5844 20.4193L44.2373 19.9937L46.2871 18.3303Z" fill="#DE2030"/>
<path d="M45.6914 21.8274L47.9573 20.4717L48.2913 21.0284L47.7216 21.9649C47.5578 22.2334 47.3483 22.5281 47.1518 22.7704L47.1583 22.7835C47.4399 22.5739 47.7346 22.3775 48.0752 22.1744L48.7366 21.7815L48.9986 22.2203L46.7392 23.5759L46.438 23.0716L47.0405 22.1024C47.2042 21.8274 47.4138 21.5196 47.6168 21.2576L47.6102 21.2445C47.3221 21.441 47.0012 21.6374 46.6344 21.8601L45.9534 22.2661L45.6914 21.8274Z" fill="#DE2030"/>
<path fill-rule="evenodd" clip-rule="evenodd" d="M49.09 25.665C48.2845 25.9924 47.6165 25.737 47.348 25.069C47.0729 24.3945 47.4593 23.7724 48.16 23.4908C48.8935 23.1961 49.6204 23.4056 49.8889 24.0802C50.1705 24.7809 49.7645 25.3965 49.09 25.665ZM48.3892 24.0343C47.9112 24.2242 47.6558 24.5713 47.7933 24.9184C47.9374 25.2655 48.3762 25.3244 48.8477 25.128C49.293 24.9512 49.5877 24.6041 49.4436 24.2439C49.3061 23.8968 48.8673 23.8379 48.3892 24.0343Z" fill="#DE2030"/>
<path d="M50.5183 25.9924L50.6558 26.536L48.5733 27.0533L48.8156 28.0029L48.3245 28.1208L47.9512 26.6342L50.5183 25.9924Z" fill="#DE2030"/>
<path fill-rule="evenodd" clip-rule="evenodd" d="M50.0008 30.5635C49.1363 30.6617 48.56 30.2361 48.4814 29.5222C48.3963 28.7953 48.9399 28.3041 49.6864 28.2256C50.4723 28.1339 51.1141 28.5334 51.1992 29.2537C51.2844 30.0069 50.7277 30.4849 50.0008 30.5635ZM49.765 28.8084C49.2477 28.8608 48.9137 29.1293 48.953 29.496C48.9988 29.8693 49.4048 30.0396 49.9156 29.9872C50.3872 29.9283 50.767 29.6729 50.7277 29.293C50.6819 28.9197 50.2758 28.7495 49.765 28.8084Z" fill="#DE2030"/>
<path d="M51.2844 31.6506L51.2778 32.2073L49.6013 32.1876C48.8482 32.1811 48.5928 31.8471 48.5928 31.3035C48.5928 31.1791 48.619 31.0088 48.6583 30.9041L49.1429 30.9695C49.1167 31.0416 49.097 31.1398 49.0905 31.2511C49.0905 31.4869 49.2018 31.631 49.6144 31.6375L51.2844 31.6506Z" fill="#DE2030"/>
<path d="M51.1727 33.5825L48.54 33.3402L48.5859 32.7901L51.2185 33.0324L51.1727 33.5825ZM51.6376 33.0913C51.7948 33.1044 51.8996 33.2289 51.8865 33.3729C51.8734 33.5105 51.749 33.6022 51.5918 33.5891C51.4543 33.576 51.3364 33.4581 51.3495 33.3206C51.3626 33.1765 51.5001 33.0782 51.6376 33.0913Z" fill="#DE2030"/>
<path fill-rule="evenodd" clip-rule="evenodd" d="M50.8979 35.2853C50.8913 35.4359 50.8455 35.7306 50.78 35.9991C50.7014 36.3331 50.6163 36.523 50.4656 36.6736C50.3347 36.8177 50.1251 36.8897 49.8959 36.8373C49.6667 36.7784 49.4833 36.6081 49.4375 36.3134L49.4309 36.3069C49.2868 36.5623 49.0183 36.7129 48.6844 36.6278C48.4551 36.5754 48.2914 36.4313 48.1997 36.2479C48.0884 36.0384 48.0753 35.7306 48.1932 35.2525C48.2587 34.9906 48.3242 34.7941 48.37 34.6762L50.8979 35.2853ZM48.6451 35.3114C48.6254 35.3573 48.6123 35.4228 48.5861 35.5145C48.5272 35.7633 48.573 35.9991 48.8481 36.0646C49.1035 36.1301 49.2607 35.9401 49.3261 35.6651L49.372 35.4817L48.6451 35.3114ZM49.7846 35.5865L49.7387 35.7699C49.6732 36.0515 49.7584 36.2348 49.9548 36.2807C50.1447 36.3265 50.2823 36.2152 50.3412 35.9663C50.374 35.8485 50.3805 35.783 50.3805 35.7371L49.7846 35.5865Z" fill="#DE2030"/>
<path fill-rule="evenodd" clip-rule="evenodd" d="M48.2257 37.6363L47.6559 37.2237L47.872 36.6867L50.0528 38.3567L49.7843 39.0377L47.0469 38.7823L47.2695 38.2191L47.9703 38.2912L48.2257 37.6363ZM48.409 38.3829L48.9853 38.4483C49.1491 38.4614 49.3455 38.4942 49.5092 38.5204V38.5138C49.3783 38.4222 49.2014 38.3108 49.077 38.2191L48.6055 37.8786L48.409 38.3829Z" fill="#DE2030"/>
<path d="M49.1691 40.4196L48.9006 40.8976L47.8855 40.3213L47.8789 40.3344C47.9379 40.4327 47.9903 40.5243 48.0492 40.6226L48.5404 41.5394L48.2064 42.1354L47.6235 40.8714H45.875L46.1959 40.3082L47.486 40.341L47.3485 40.0201L46.5954 39.6009L46.8704 39.1163L49.1691 40.4196Z" fill="#DE2030"/>
<path fill-rule="evenodd" clip-rule="evenodd" d="M45.8155 42.0829L45.3898 41.5328L45.7434 41.0744L47.3675 43.2879L46.9222 43.8708L44.3682 42.8491L44.7349 42.3776L45.3898 42.6396L45.8155 42.0829ZM45.7827 42.8557L46.3197 43.0784C46.4703 43.1373 46.6537 43.2224 46.7978 43.2879H46.8043C46.6996 43.1635 46.5686 43.0063 46.4703 42.8819L46.1167 42.4235L45.7827 42.8557Z" fill="#DE2030"/>
<path d="M44.1131 43.1242L45.9468 45.0299L45.4753 45.4818L44.434 45.1347C44.1393 45.0365 43.8053 44.8989 43.5172 44.7614L43.5106 44.768C43.7792 44.9972 44.0346 45.246 44.3096 45.5276L44.8466 46.0843L44.4799 46.4379L42.6396 44.5322L43.0653 44.1327L44.1524 44.4995C44.4537 44.6042 44.8008 44.7418 45.102 44.8793L45.1086 44.8662C44.8597 44.6239 44.5912 44.3619 44.2965 44.0541L43.7399 43.4778L44.1131 43.1242Z" fill="#DE2030"/>
<path d="M43.7336 47.0339L43.2883 47.3614L42.0178 45.6325L41.2319 46.2153L40.9307 45.8093L42.1749 44.899L43.7336 47.0339Z" fill="#DE2030"/>
<path d="M41.4481 48.5729L40.0859 46.3069L40.564 46.0188L41.9262 48.2847L41.4481 48.5729Z" fill="#DE2030"/>
<path d="M37.7734 47.5905C37.9044 47.4595 38.1598 47.2434 38.4545 47.1125C38.8671 46.9225 39.2076 46.8963 39.5154 47.0142C39.8167 47.1256 40.0721 47.3875 40.2293 47.7411C40.5894 48.5401 40.262 49.2474 39.5285 49.5814C39.2404 49.7189 38.9915 49.7582 38.8606 49.7516L38.7623 49.267C38.9129 49.267 39.0832 49.2474 39.3321 49.1295C39.7512 48.9396 39.9542 48.5336 39.7119 48.0162C39.4827 47.5185 39.0636 47.3613 38.651 47.5512C38.5331 47.6036 38.448 47.6626 38.4152 47.7018L38.6444 48.2061L38.9915 48.0489L39.188 48.4681L38.3563 48.8544L37.7734 47.5905ZM40.1245 50.0005C40.0786 49.9285 39.987 49.863 39.8494 49.9285C39.7119 49.9939 39.6988 50.0922 39.7184 50.1839L39.463 50.3083C39.3452 50.0463 39.4041 49.7909 39.7184 49.6469C40.0459 49.4897 40.262 49.6207 40.3864 49.8826L40.1245 50.0005Z" fill="#DE2030"/>
<path d="M37.4789 50.328L36.6406 47.8263L37.1711 47.6495L38.0093 50.1511L37.4789 50.328Z" fill="#DE2030"/>
<path d="M32.2791 50.0398C32.2791 50.4589 31.9386 50.7995 31.5194 50.7995C31.1003 50.7995 30.7598 50.4589 30.7598 50.0398C30.7598 49.6272 31.1003 49.2867 31.5194 49.2867C31.9386 49.2867 32.2791 49.6272 32.2791 50.0398Z" fill="#DE2030"/>
<path fill-rule="evenodd" clip-rule="evenodd" d="M31.5199 47.5119C22.6789 47.5119 15.4883 40.3213 15.4883 31.4803C15.4883 22.6394 22.6789 15.4487 31.5199 15.4487C40.3608 15.4487 47.5515 22.6394 47.5515 31.4803C47.5515 40.3213 40.3608 47.5119 31.5199 47.5119ZM31.5199 15.9137C22.9343 15.9137 15.9533 22.9013 15.9533 31.4803C15.9533 40.0659 22.9343 47.047 31.5199 47.047C40.0989 47.047 47.0865 40.0659 47.0865 31.4803C47.0865 22.9013 40.0989 15.9137 31.5199 15.9137Z" fill="#DE2030"/>
<path d="M31.7034 34.1458C32.2928 34.0344 32.8167 33.7266 33.2031 33.2944C32.9018 33.779 32.4827 34.172 31.985 34.447C31.5397 34.6959 31.042 34.8465 30.5115 34.8727C30.4526 34.8792 30.3936 34.8792 30.3347 34.8792C29.4768 34.8792 28.6909 34.5583 28.095 34.0279C27.3877 33.4057 26.9424 32.4955 26.9424 31.4804C26.9424 30.8255 27.1258 30.2165 27.4532 29.6925C27.8003 29.1293 28.3111 28.6775 28.9201 28.3959C29.0511 28.3369 29.1886 28.2845 29.3262 28.2387C29.6471 28.1405 29.9876 28.0881 30.3347 28.0881C31.5462 28.0881 32.6071 28.7233 33.2031 29.6663C32.7054 29.1162 31.985 28.7692 31.186 28.7692C30.78 28.7692 30.4067 28.8543 30.0596 29.0115C29.9352 29.0704 29.8108 29.1359 29.6995 29.2145C29.1428 29.5747 28.7237 30.1444 28.5534 30.8058C28.4966 31.0198 28.4683 31.2446 28.4683 31.4804C28.4683 32.0894 28.6713 32.6592 29.0118 33.111C29.5095 33.7659 30.2954 34.1982 31.186 34.1982C31.3629 34.1982 31.5397 34.1785 31.7034 34.1458Z" fill="#DE2030"/>
<path d="M36.0912 30.4849L35.3709 31.4803L35.5608 31.7423L36.0912 32.4823L34.919 32.0959L34.1986 33.0979V31.8667L33.0264 31.4803L34.1986 31.1005V29.8693L34.5064 30.3015L34.919 30.8647L36.0912 30.4849Z" fill="#DE2030"/>
<path fill-rule="evenodd" clip-rule="evenodd" d="M41.4147 32.8687C41.3034 33.5695 41.1266 34.2505 40.8777 34.8989L43.0912 36.7522L41.9779 38.7169L39.3584 37.5577C38.8934 38.1471 38.3564 38.6841 37.767 39.1491L38.9851 41.7686L36.9026 42.9998L35.1999 40.6357C34.5319 40.8976 33.8377 41.0875 33.1108 41.2054L32.8292 44.1393L31.6569 44.1917C31.622 44.1917 31.5871 44.1917 31.5521 44.1917C30.2751 44.1917 29.0505 43.9952 27.8913 43.6416C27.7997 43.7398 27.6752 43.8053 27.5377 43.8053C27.2692 43.8053 27.0531 43.5892 27.0531 43.3207C27.0531 43.0522 27.2692 42.8361 27.5377 42.8361C27.7538 42.8361 27.9306 42.9867 27.9896 43.1832C29.116 43.5303 30.3144 43.7267 31.5521 43.7267V41.2316C30.4716 41.2316 29.4369 41.0548 28.4676 40.7339L28.0813 41.6769C28.7165 41.8931 29.3779 42.0306 30.0525 42.1288C30.1441 42.024 30.2686 41.9585 30.4126 41.9585C30.6812 41.9585 30.8973 42.1747 30.8973 42.4432C30.8973 42.7051 30.6812 42.9212 30.4126 42.9212C30.2031 42.9212 30.0263 42.7837 29.9608 42.5872C29.2535 42.4825 28.5659 42.3384 27.9044 42.1092L27.6425 42.0109C27.6032 41.9978 27.5639 41.9847 27.5246 41.9716L27.4657 41.9454L28.0223 40.5702C27.3347 40.3017 26.6929 39.9415 26.0839 39.5355C26.0184 39.5748 25.9398 39.601 25.8546 39.601C25.5861 39.601 25.37 39.3848 25.37 39.1163C25.37 38.8544 25.5861 38.6317 25.8546 38.6317C26.1166 38.6317 26.3393 38.8544 26.3393 39.1163C26.3393 39.1294 26.3327 39.136 26.3327 39.1425C27.8193 40.1642 29.6137 40.7667 31.5521 40.7667V39.7647C29.188 39.7647 27.0596 38.7562 25.5534 37.1451L24.5056 38.1995L24.4401 38.134C24.4073 38.0947 24.3681 38.062 24.3288 38.0227L24.1781 37.8524C23.5429 37.1189 23.019 36.2807 22.6261 35.3769C22.3903 35.3442 22.2069 35.1543 22.2069 34.9054C22.2069 34.6369 22.423 34.4208 22.685 34.4208C22.9535 34.4208 23.1696 34.6369 23.1696 34.9054C23.1696 35.0233 23.1238 35.1215 23.0583 35.2067C23.4316 36.0515 23.9162 36.8308 24.5121 37.525L25.2391 36.7849C24.0472 35.3507 23.3268 33.4974 23.3268 31.4804C23.3268 26.9158 27.0203 23.1961 31.5521 23.1961V22.1941C29.319 22.1941 27.2692 22.9996 25.6647 24.3225C25.6713 24.3487 25.6778 24.3749 25.6778 24.4011C25.6778 24.6696 25.4617 24.8857 25.1932 24.8857C24.9313 24.8857 24.7151 24.6696 24.7151 24.4011C24.7151 24.1326 24.9313 23.9164 25.1932 23.9164C25.2587 23.9164 25.3176 23.9295 25.3766 23.9557C27.0596 22.5674 29.2077 21.7291 31.5521 21.7291V20.7075C30.9431 20.7075 30.3537 20.773 29.7774 20.8712C29.7054 21.0546 29.5351 21.1856 29.3255 21.1856C29.057 21.1856 28.8409 20.9695 28.8409 20.701C28.8409 20.439 29.057 20.2229 29.3255 20.2229C29.4762 20.2229 29.6071 20.2949 29.6988 20.4063C30.3013 20.308 30.9169 20.2425 31.5521 20.2425C31.5565 20.2425 31.5587 20.2425 31.5587 20.2425L31.5521 19.2406C27.708 19.2406 24.2698 21.0218 22.0236 23.8051L22.7767 24.4731C23.9096 23.052 25.3962 21.9256 27.0858 21.1921C27.0858 21.1878 27.0858 21.1856 27.0858 21.1856C27.0858 20.9236 27.3019 20.701 27.5639 20.701C27.8324 20.701 28.0485 20.9236 28.0485 21.1856C28.0485 21.4541 27.8324 21.6702 27.5639 21.6702C27.4788 21.6702 27.4002 21.6374 27.3281 21.5981C25.6778 22.3054 24.2305 23.3991 23.1238 24.7874L22.8225 25.1476L21.7354 24.1784C20.2161 26.2151 19.3123 28.743 19.3123 31.4804H20.7858V31.6637C20.8513 35.3442 22.7767 38.5728 25.6516 40.4654C25.7171 40.4392 25.7826 40.4196 25.8546 40.4196C26.1166 40.4196 26.3393 40.6357 26.3393 40.9042C26.3393 41.1727 26.1166 41.3888 25.8546 41.3888C25.5861 41.3888 25.37 41.1727 25.37 40.9042C25.37 40.8845 25.3766 40.8649 25.3831 40.8452C22.4623 38.9133 20.478 35.6716 20.3274 31.9453H19.3189C19.3451 32.6133 19.4368 33.2617 19.5612 33.8969C19.7642 33.9493 19.9214 34.1327 19.9214 34.3553C19.9214 34.6173 19.7053 34.8334 19.4368 34.8334C19.1683 34.8334 18.9521 34.6173 18.9521 34.3553C18.9521 34.2112 19.0111 34.0934 19.1093 34.0017C18.9718 33.3337 18.8736 32.6526 18.8539 31.9453H18.8408V31.4804C18.8408 24.4731 24.5449 18.769 31.5521 18.769C31.6744 18.769 31.7945 18.7712 31.9123 18.7756L32.8423 18.8214L33.0911 21.4934C33.8377 21.6112 34.5581 21.8077 35.2457 22.0828L36.9026 19.9609L38.8541 21.0939L37.767 23.5497C38.3761 24.0343 38.9262 24.591 39.4108 25.2066L41.9583 24.1718L43.1174 26.2216L40.8384 27.6951C41.12 28.4155 41.323 29.1752 41.4344 29.9676L44.1914 30.2099V32.6592L41.4147 32.8687ZM25.4093 36.9814L25.2456 36.7915C25.298 36.857 25.3526 36.9203 25.4093 36.9814ZM28.4676 40.7339L28.2188 40.6422C28.3017 40.6771 28.3847 40.7077 28.4676 40.7339ZM39.3125 31.4869C39.3125 27.1778 35.8351 23.6676 31.5587 23.6676C27.2823 23.6676 23.7983 27.1778 23.7983 31.4869C23.7983 35.7961 27.2823 39.2997 31.5587 39.2997C35.8351 39.2997 39.3125 35.7961 39.3125 31.4869Z" fill="#DE2030"/>
<path d="M21.7227 33.1962C21.7227 33.0521 21.7947 32.9211 21.8995 32.8294C21.8405 32.3906 21.8012 31.9388 21.8012 31.4804C21.8012 29.3913 22.4692 27.4594 23.5891 25.868C23.5563 25.809 23.5367 25.737 23.5367 25.665C23.5367 25.3965 23.7528 25.1804 24.0213 25.1804C24.2898 25.1804 24.5059 25.3965 24.5059 25.665C24.5059 25.9335 24.2898 26.1496 24.0213 26.1496C24.0082 26.1496 23.9886 26.143 23.9755 26.1365C22.9015 27.6493 22.2662 29.4895 22.2662 31.4804C22.2662 31.9126 22.3055 32.3317 22.3644 32.7508C22.5544 32.8163 22.6853 32.9866 22.6853 33.1962C22.6853 33.4647 22.4692 33.6808 22.2073 33.6808C21.9388 33.6808 21.7227 33.4647 21.7227 33.1962Z" fill="#DE2030"/>
<path d="M25.9658 42.4104C25.9658 42.6724 25.7497 42.8885 25.4812 42.8885C25.2127 42.8885 24.9966 42.6724 24.9966 42.4104C24.9966 42.3908 25.0031 42.3777 25.0097 42.3646C22.8354 41.0483 21.0934 39.1163 20.0194 36.7981C19.7771 36.7719 19.5938 36.5754 19.5938 36.3265C19.5938 36.058 19.8099 35.8419 20.0718 35.8419C20.3403 35.8419 20.5564 36.058 20.5564 36.3265C20.5564 36.4379 20.5106 36.5361 20.4516 36.6147C21.4864 38.8478 23.176 40.7143 25.2782 41.9782C25.3371 41.9455 25.4091 41.9258 25.4812 41.9258C25.7497 41.9258 25.9658 42.1419 25.9658 42.4104Z" fill="#DE2030"/>
<path d="M21.9915 26.5556C21.448 27.61 21.0747 28.756 20.9044 29.9741C21.0027 30.0593 21.0682 30.1837 21.0682 30.3343C21.0682 30.5963 20.852 30.8124 20.5835 30.8124C20.3216 30.8124 20.1055 30.5963 20.1055 30.3343C20.1055 30.1117 20.2495 29.9414 20.446 29.8759C20.6228 28.6251 21.0092 27.4397 21.5659 26.3592C21.5135 26.2806 21.4742 26.1889 21.4742 26.0841C21.4742 25.8156 21.6903 25.5995 21.9522 25.5995C22.2208 25.5995 22.4369 25.8156 22.4369 26.0841C22.4369 26.3395 22.2404 26.5425 21.9915 26.5556Z" fill="#DE2030"/>
<path fill-rule="evenodd" clip-rule="evenodd" d="M38.2255 31.4803C38.2255 35.1804 35.2131 38.1863 31.5195 38.1863C27.8194 38.1863 24.8135 35.1804 24.8135 31.4803C24.8135 27.7868 27.8194 24.7743 31.5195 24.7743C35.2131 24.7743 38.2255 27.7868 38.2255 31.4803ZM37.7475 31.4803C37.7475 28.0422 34.9577 25.2524 31.5195 25.2524C28.0814 25.2524 25.2915 28.0422 25.2915 31.4803C25.2915 34.9185 28.0814 37.7083 31.5195 37.7083C34.9577 37.7083 37.7475 34.9185 37.7475 31.4803Z" fill="#DE2030"/>
</svg>
